<svg width="64" height="64" viewBox="0 0 64 64" fill="none" xmlns="http://www.w3.org/2000/svg">
<g clip-path="url(#clip0_361_59)">
<path d="M-0.0371094 56.9039C-0.0371094 60.7059 3.05089 63.7859 6.86289 63.7859H57.0929C60.9009 63.7859 63.9899 60.7059 63.9899 56.9039V6.87395C63.9909 3.07695 60.9009 -0.00305176 57.0939 -0.00305176H6.86389C3.05189 -0.00305176 -0.0361094 3.07695 -0.0361094 6.87395V56.9039" fill="#27AAE1"/>
<path d="M34.668 52.618H35.825V53.649H34.668V52.618ZM36.15 52.618H37.307V53.649H36.15V52.618Z" fill="#F9ED32"/>
<path d="M38.4859 54.08L39.3299 53.587L40.1759 54.08L40.4359 54.228V52.421H42.1649V50.004H42.5719V52.421H44.2989V53.205C44.6949 52.59 45.3989 52.167 46.2149 52.12V51.939H45.7399V51.633H46.2139V51.139H46.4269V51.633H46.9049V51.939H46.4269V52.116C47.5849 52.143 48.5359 52.927 48.7319 53.954H48.7719V55.533L49.1589 55.304L49.9969 54.815L50.8349 55.304L50.9319 55.363V51.732H54.3109V56.742H54.3939L54.9919 56.393L55.8299 55.9L56.6679 56.393L56.7029 56.413V63.847H46.5879V63.789H37.6399V54.572L38.4859 54.083" fill="#559EAA"/>
<path d="M34.668 53.9709H35.825V55.0039H34.668V53.9709ZM34.668 55.4399H35.825V56.4739H34.668V55.4399ZM34.668 56.8769H35.825V57.9119H34.668V56.8769ZM36.15 53.9709H37.307V55.0039H36.15V53.9709ZM36.15 55.4399H37.307V56.4739H36.15V55.4399ZM36.15 56.8769H37.307V57.9119H36.15V56.8769Z" fill="#F9ED32"/>
<path d="M21.671 53.982L22.515 53.491L23.361 53.982L23.62 54.134V52.327H25.347V49.91H25.754V52.327H27.483V53.11C27.876 52.496 28.58 52.073 29.399 52.025V51.845H28.925V51.54H29.399V51.047H29.611V51.54H30.089V51.847H29.611V52.023C30.767 52.051 31.721 52.835 31.916 53.857H31.954V55.44L32.343 55.212L33.181 54.723L34.019 55.212L34.114 55.267V51.639H37.495V56.649H37.577L38.174 56.296L39.012 55.807L39.851 56.296L41.902 56.319V63.753H29.772V63.693H20.823V54.477L21.668 53.984" fill="#227896"/>
<path d="M-0.0370391 56.22V56.968C-0.0370391 60.769 3.05096 63.849 6.86296 63.849H57.093C60.901 63.849 63.99 60.769 63.99 56.968V56.22H-0.0400391" fill="#227896"/>
<path d="M12.616 50.729L14.438 49.542L16.263 50.729L16.398 50.815L16.532 50.729L18.355 49.542L20.18 50.729L21.21 51.4V63.751H10.824V51.894L12.616 50.729Z" fill="#227896"/>
<path d="M4.75 56.877H5.904V57.912H4.75V56.877ZM4.75 58.23H5.904V59.261H4.75V58.23ZM6.229 56.877H7.384V57.912H6.229V56.877ZM6.229 58.23H7.384V59.261H6.229V58.23ZM7.835 56.877H8.989V57.912H7.835V56.877ZM7.835 58.23H8.989V59.261H7.835V58.23ZM9.312 56.877H10.469V57.912H9.312V56.877ZM9.312 58.23H10.469V59.261H9.312V58.23Z" fill="#F9ED32"/>
<path d="M30.613 40.49H34.219V63.868H30.613V40.49Z" fill="#A7A9AC"/>
<path d="M29.1399 41.702H63.9939V45.156H29.1399V41.702Z" fill="#D1D3D4"/>
<path d="M35.7319 38.4H39.3389V63.784H35.7319V38.4Z" fill="#D1D3D4"/>
<path d="M31.98 49.683V63.869H53.559C57.471 63.869 60.645 60.789 60.645 56.988V49.683H31.98Z" fill="#878666"/>
<path d="M35.8391 49.601V63.7869H57.0391C60.8821 63.7869 63.9991 60.7069 63.9991 56.9049V49.601H35.8391Z" fill="#B2B18B"/>
<path d="M29.1399 49.23H63.9939V52.682H29.1399V49.23Z" fill="#D1D3D4"/>
<path d="M39.3401 57.16H45.0011V62.223H39.3401V57.16ZM47.0901 57.16H52.7521V62.223H47.0901V57.16ZM54.5601 57.16H60.2201V62.223H54.5601V57.16Z" fill="#56553D"/>
<path d="M1.58398 24.1899H8.63398V30.7489H1.58398V24.1899Z" fill="#364C56"/>
<path d="M17.6039 8.74199L12.0599 22.21L5.85791 24.661L13.7039 8.38599L17.6039 8.74199ZM15.4899 25.625H22.0729V63.825H15.4899V25.625Z" fill="#B2A528"/>
<path d="M62.728 26.377H0.478027L7.54803 20.538L55.628 18.13L62.728 26.377Z" fill="#B2A528"/>
<path d="M14.707 63.8251H17.478L17.417 63.7901L21.535 61.3331V63.8251H23.524L23.544 26.6451H51.961V32.7621H54.525V26.6451H63.753L58.733 17.6691L22.423 6.35706H13.153L1.03296 26.6451H14.722L14.707 63.8251ZM24.109 19.6851H27.944L26.027 23.1211L24.109 19.6851ZM27.825 24.5621L30.204 20.3101L32.582 24.5621H27.825ZM32.554 19.6851H37.207L34.88 23.8481L32.554 19.6851ZM37.077 24.5621L39.384 20.4361L41.694 24.5621H37.077ZM59.847 24.5621H55.092L57.474 20.3121L59.847 24.5621ZM55.284 19.6851L52.906 23.9391L50.521 19.6851H55.284ZM50.827 24.5621H46.071L48.449 20.3101L50.827 24.5621ZM43.998 23.8481L41.618 19.5921H46.379L43.998 23.8481ZM23.016 9.05606L44.882 17.6001H23.016V9.05606ZM21.44 56.7861L17.321 54.3341L18.898 53.3891H19.054L21.44 51.9611V56.7861ZM21.44 47.3231L19.408 46.1131L18.932 45.8781L17.354 44.9371L21.473 42.4801L21.44 47.3231ZM21.568 37.9311L17.443 35.4761L21.568 33.0211V37.9311ZM21.474 26.6501V28.3221L18.675 26.6501H21.474ZM16.787 28.1941L20.912 30.6501L16.787 33.1081V28.1941ZM16.787 37.7431L20.912 40.1971L16.787 42.6561V37.7431ZM16.787 47.2761L20.731 49.6231L16.787 51.9711V47.2761ZM16.755 56.6141L20.878 59.0681L16.755 61.5241V56.6141ZM9.08796 19.9851L14.951 9.48806V19.9851H9.08796Z" fill="#F9ED32"/>
<path d="M16.249 23.374H22.509L20.956 20V19.696H17.842V20L16.249 23.374Z" fill="#CE3245"/>
<path d="M40.894 31.7791H63.674V37.4321H40.894V31.7791Z" fill="#E6E7E8"/>
<path d="M13.4109 26.407H28.2429V34.341H13.4109V26.407Z" fill="#B2A528"/>
<path d="M0.475098 26.783H14.4951V20.538H2.8701L0.475098 26.783ZM18.0201 28.392H28.2481V31.779H18.0201V28.392Z" fill="#F9ED32"/>
<path d="M12.512 33.16H28.766V35.324H12.512V33.16Z" fill="#364C56"/>
</g>
<defs>
<clipPath id="clip0_361_59">
<rect width="64" height="64" fill="white"/>
</clipPath>
</defs>
</svg>
