<svg width="19" height="27" viewBox="0 0 19 27" fill="none" xmlns="http://www.w3.org/2000/svg">
<ellipse cx="9.5" cy="13.5" rx="9.5" ry="13.5" fill="#8C8484" fill-opacity="0.33"/>
<path d="M15.3461 14.049C15.3461 9.60355 12.7288 6 9.50069 6C6.2711 6.001 3.65381 9.60355 3.65381 14.05C3.65381 18.0665 5.79177 21.3961 8.58588 22V16.3757H7.10261V14.05H8.58735V12.2752C8.58735 10.2585 9.46051 9.14461 10.7955 9.14461C11.4355 9.14461 12.1041 9.30159 12.1041 9.30159V11.2813H11.3668C10.6413 11.2813 10.4148 11.9023 10.4148 12.5392V14.049H12.0354L11.7768 16.3747H10.414V21.999C13.2082 21.3951 15.3461 18.0655 15.3461 14.049Z" fill="black"/>
</svg>
