<svg width="100" height="78" viewBox="0 0 100 78" fill="none" xmlns="http://www.w3.org/2000/svg">
<path d="M68.6127 31.548H37.5252C37.2755 31.548 37.0361 31.6262 36.8595 31.7653C36.683 31.9044 36.5838 32.093 36.5837 32.2897V76.5034C36.5838 76.7001 36.683 76.8888 36.8595 77.0279C37.0361 77.167 37.2755 77.2451 37.5252 77.2452H68.6125C68.8622 77.2451 69.1017 77.167 69.2782 77.0279C69.4548 76.8888 69.554 76.7001 69.554 76.5034V32.2897C69.554 32.1923 69.5297 32.0959 69.4824 32.0059C69.4351 31.9159 69.3658 31.8341 69.2784 31.7652C69.191 31.6964 69.0872 31.6417 68.973 31.6044C68.8588 31.5672 68.7364 31.548 68.6127 31.548Z" fill="#597B91"/>
<path d="M45.6861 51.2987H42.1913C41.9343 51.2987 41.6879 51.2183 41.5062 51.0751C41.3245 50.932 41.2224 50.7378 41.2224 50.5353V39.2689C41.2224 39.0664 41.3245 38.8723 41.5062 38.7291C41.6879 38.5859 41.9343 38.5055 42.1913 38.5055H45.6861C45.9431 38.5055 46.1895 38.5859 46.3712 38.7291C46.5529 38.8723 46.655 39.0664 46.655 39.2689V50.5353C46.655 50.7378 46.5529 50.932 46.3712 51.0751C46.1895 51.2183 45.9431 51.2987 45.6861 51.2987ZM55.663 50.5355V39.2691C55.663 39.0666 55.561 38.8724 55.3792 38.7293C55.1975 38.5861 54.9511 38.5057 54.6941 38.5057H51.1993C50.9424 38.5057 50.6959 38.5861 50.5142 38.7293C50.3325 38.8724 50.2304 39.0666 50.2304 39.2691V50.5355C50.2304 50.738 50.3325 50.9321 50.5142 51.0753C50.6959 51.2185 50.9424 51.2989 51.1993 51.2989H54.6941C54.9511 51.2988 55.1975 51.2184 55.3792 51.0753C55.5609 50.9321 55.663 50.7379 55.663 50.5355ZM64.6713 50.5355V39.2691C64.6713 39.0666 64.5692 38.8724 64.3875 38.7293C64.2058 38.5861 63.9593 38.5057 63.7023 38.5057H60.2076C59.9506 38.5057 59.7041 38.5861 59.5224 38.7293C59.3407 38.8724 59.2386 39.0666 59.2386 39.2691V50.5355C59.2386 50.738 59.3407 50.9321 59.5224 51.0753C59.7041 51.2185 59.9506 51.2989 60.2076 51.2989H63.7023C63.9593 51.2988 64.2057 51.2184 64.3874 51.0753C64.5691 50.9321 64.6712 50.7379 64.6713 50.5355ZM46.655 73.1136V61.8472C46.655 61.6447 46.5529 61.4505 46.3712 61.3074C46.1895 61.1642 45.9431 61.0838 45.6861 61.0838H42.1913C41.9343 61.0838 41.6879 61.1642 41.5062 61.3074C41.3245 61.4505 41.2224 61.6447 41.2224 61.8472V73.1136C41.2224 73.3161 41.3245 73.5103 41.5062 73.6534C41.6879 73.7966 41.9343 73.877 42.1913 73.877H45.6861C45.943 73.877 46.1895 73.7965 46.3712 73.6534C46.5529 73.5102 46.655 73.3161 46.655 73.1136ZM55.663 73.1136V61.8472C55.663 61.6447 55.561 61.4505 55.3792 61.3074C55.1975 61.1642 54.9511 61.0838 54.6941 61.0838H51.1993C50.9424 61.0838 50.6959 61.1642 50.5142 61.3074C50.3325 61.4505 50.2304 61.6447 50.2304 61.8472V73.1136C50.2304 73.3161 50.3325 73.5103 50.5142 73.6534C50.6959 73.7966 50.9424 73.877 51.1993 73.877H54.6941C54.9511 73.877 55.1975 73.7965 55.3792 73.6534C55.5609 73.5102 55.663 73.3161 55.663 73.1136ZM64.6713 73.1136V61.8472C64.6713 61.6447 64.5692 61.4505 64.3875 61.3074C64.2058 61.1642 63.9593 61.0838 63.7023 61.0838H60.2076C59.9506 61.0838 59.7041 61.1642 59.5224 61.3074C59.3407 61.4505 59.2386 61.6447 59.2386 61.8472V73.1136C59.2386 73.3161 59.3407 73.5103 59.5224 73.6534C59.7041 73.7966 59.9506 73.877 60.2076 73.877H63.7023C63.9593 73.877 64.2057 73.7965 64.3874 73.6534C64.5691 73.5102 64.6712 73.3161 64.6713 73.1136ZM70.7752 34.2277V32.3318C70.7752 32.1239 70.6704 31.9245 70.4839 31.7775C70.2973 31.6306 70.0442 31.548 69.7804 31.548H36.1132C35.8494 31.548 35.5964 31.6306 35.4098 31.7775C35.2232 31.9245 35.1184 32.1239 35.1184 32.3318V34.2277C35.1184 34.4356 35.2232 34.6349 35.4098 34.7819C35.5964 34.9289 35.8494 35.0115 36.1132 35.0115H69.7804C69.911 35.0115 70.0404 34.9913 70.1611 34.9519C70.2818 34.9125 70.3915 34.8548 70.4839 34.782C70.5763 34.7092 70.6496 34.6228 70.6996 34.5277C70.7495 34.4326 70.7753 34.3306 70.7752 34.2277ZM70.7752 56.9522V55.0563C70.7752 54.8484 70.6704 54.6491 70.4839 54.5021C70.2973 54.3551 70.0442 54.2725 69.7804 54.2725H36.1132C35.8494 54.2725 35.5964 54.3551 35.4098 54.5021C35.2232 54.6491 35.1184 54.8484 35.1184 55.0563V56.9522C35.1184 57.1601 35.2232 57.3595 35.4098 57.5065C35.5964 57.6534 35.8494 57.736 36.1132 57.736H69.7804C69.911 57.736 70.0404 57.7158 70.1611 57.6764C70.2818 57.637 70.3915 57.5793 70.4839 57.5065C70.5763 57.4337 70.6496 57.3473 70.6996 57.2522C70.7495 57.1571 70.7753 57.0552 70.7752 56.9522Z" fill="#2B3B47"/>
<path d="M41.0518 77.3947H41.0284C40.7204 77.3947 40.4251 77.2983 40.2073 77.1268C39.9896 76.9552 39.8672 76.7225 39.8672 76.4799V73.4391C39.8672 73.1965 39.9896 72.9638 40.2073 72.7922C40.4251 72.6207 40.7204 72.5243 41.0284 72.5243H41.0518C41.3597 72.5243 41.655 72.6207 41.8728 72.7922C42.0906 72.9638 42.2129 73.1965 42.2129 73.4391V76.4799C42.2128 76.7225 42.0905 76.9552 41.8727 77.1267C41.655 77.2983 41.3597 77.3947 41.0518 77.3947ZM29.7033 76.4799V73.4391C29.7033 73.1965 29.581 72.9638 29.3632 72.7922C29.1455 72.6207 28.8501 72.5243 28.5422 72.5243H28.5188C28.2108 72.5243 27.9155 72.6207 27.6978 72.7922C27.48 72.9638 27.3577 73.1965 27.3577 73.4391V76.4799C27.3577 76.7225 27.48 76.9552 27.6978 77.1268C27.9155 77.2983 28.2108 77.3947 28.5188 77.3947H28.5422C28.8501 77.3947 29.1454 77.2983 29.3632 77.1267C29.5809 76.9552 29.7033 76.7225 29.7033 76.4799Z" fill="#E2AF8D"/>
<path d="M27.4553 69.2345H42.2129V73.7006H27.4553V69.2345Z" fill="#E5E4DF"/>
<path d="M36.6375 73.7344L42.2925 69.3077V71.8346L39.8446 73.7344H36.6375ZM30.5602 73.7344H33.7675L39.4358 69.1641H36.2285L30.5602 73.7344ZM30.1513 69.1641L27.4038 71.3586V73.7344H27.6902L33.3587 69.1641H30.1513Z" fill="#FF473E"/>
<path d="M98.4062 56.641C98.4051 56.627 98.4254 56.6128 98.4219 56.5989C98.4188 56.5867 98.4238 56.5753 98.4192 56.5636C98.4157 56.5548 98.4186 56.5458 98.4139 56.5371C98.4078 56.5247 98.4006 56.5127 98.3925 56.5011C98.3875 56.4941 98.3849 56.4868 98.3793 56.4801C98.3488 56.4438 98.3095 56.4127 98.2637 56.3884C98.2531 56.3828 98.2419 56.3789 98.2308 56.3742C98.2179 56.3687 98.2057 56.3625 98.1922 56.3581C98.178 56.3535 98.1635 56.3508 98.1488 56.3474C98.1371 56.3447 98.126 56.3584 98.1138 56.3566C98.0868 56.3523 98.0593 56.3672 98.0317 56.3672H89.4858C89.4583 56.3672 89.4307 56.3523 89.4036 56.3566C89.3914 56.3584 89.3804 56.3534 89.3686 56.3561C89.3541 56.3594 89.3394 56.3578 89.3253 56.3623C89.3116 56.3668 89.2992 56.3707 89.2864 56.3764C89.2754 56.3811 89.2638 56.3838 89.2532 56.3895C89.2071 56.4135 89.1676 56.4446 89.1368 56.4807C89.1312 56.4874 89.1273 56.4944 89.1223 56.5014C89.1138 56.5132 89.1049 56.5246 89.0983 56.5374C89.0938 56.5461 89.0913 56.5549 89.0878 56.5637C89.0832 56.5755 89.0776 56.5867 89.0745 56.5991C89.071 56.6129 89.0799 56.6271 89.0786 56.6411C89.078 56.6486 89.0853 56.6556 89.0853 56.6632V63.0703H80.9395C80.912 63.0697 80.8845 63.0712 80.8573 63.0748C80.8451 63.0766 80.8341 63.0792 80.8223 63.0819C80.8078 63.0853 80.7931 63.0874 80.779 63.092C80.7653 63.0964 80.7529 63.1023 80.7401 63.1078C80.7291 63.1125 80.7175 63.1163 80.7069 63.1218C80.6608 63.1461 80.6213 63.1773 80.5905 63.2135C80.5849 63.2202 80.581 63.2276 80.576 63.2346C80.5675 63.2463 80.5586 63.2579 80.552 63.2705C80.5475 63.2792 80.545 63.2882 80.5416 63.297C80.5369 63.3088 80.5313 63.3202 80.5282 63.3324C80.5247 63.3462 80.5528 63.3604 80.5516 63.3744C80.551 63.3819 80.5775 63.3889 80.5775 63.3965V69.7735H72.3934C72.3659 69.7735 72.3383 69.7885 72.3112 69.7928C72.299 69.7946 72.288 69.8047 72.2762 69.8074C72.2617 69.8108 72.247 69.8167 72.2329 69.8213C72.2192 69.8257 72.2068 69.8335 72.194 69.8391C72.183 69.8438 72.1714 69.8486 72.1608 69.8541C72.1147 69.8785 72.0752 69.9098 72.0444 69.9462C72.0388 69.9529 72.0349 69.9604 72.0299 69.9674C72.0214 69.9791 72.0125 69.9909 72.0059 70.0035C72.0015 70.0122 71.9989 70.0212 71.9955 70.03C71.9908 70.0417 71.9852 70.0532 71.9821 70.0654C71.9786 70.0792 72.0258 70.0934 72.0247 70.1074C72.0241 70.1149 72.0697 70.1219 72.0697 70.1295V76.8628C72.0697 76.8704 72.0241 76.8774 72.0247 76.8849C72.0258 76.8989 72.0026 76.9131 72.0061 76.9269C72.0092 76.9393 72.0028 76.9507 72.0074 76.9624C72.0109 76.9713 72.0075 76.9802 72.0119 76.9888C72.0185 77.0014 72.0245 77.013 72.033 77.0249C72.038 77.0317 72.0401 77.039 72.0459 77.0457C72.0767 77.082 72.1155 77.1132 72.1616 77.1376C72.172 77.1431 72.1828 77.1467 72.1937 77.1515C72.2068 77.1571 72.2192 77.1634 72.2331 77.1679C72.247 77.1725 72.2613 77.1751 72.2754 77.1783C72.2874 77.181 72.2988 77.2072 72.3112 77.2091C72.3383 77.2133 72.3657 77.238 72.3932 77.238H98.0313C98.0587 77.238 98.0862 77.2133 98.1133 77.2091C98.1256 77.2071 98.1371 77.1923 98.149 77.1894C98.1634 77.1861 98.1777 77.1778 98.1916 77.1734C98.2055 77.1688 98.2181 77.1599 98.2312 77.1541C98.2421 77.1493 98.2533 77.1443 98.2637 77.1388C98.3097 77.1146 98.3494 77.0826 98.3801 77.0464C98.3857 77.0397 98.3896 77.032 98.3944 77.0252C98.4029 77.0133 98.4118 77.0016 98.4186 76.9889C98.423 76.9804 98.4254 76.9713 98.429 76.9624C98.4337 76.9507 98.4393 76.9393 98.4424 76.9269C98.4458 76.9131 98.4043 76.8989 98.4056 76.8849C98.4062 76.8774 98.3662 76.8704 98.3662 76.8628V56.6631C98.3668 56.6556 98.4068 56.6484 98.4062 56.641ZM72.8433 70.9272L76.1042 73.4963L72.8433 76.0654V70.9272ZM85.8247 73.4963L89.0855 70.9272V76.0654L85.8247 73.4963ZM77.3169 73.4963L80.5777 70.9272V76.0654L77.3169 73.4963ZM89.859 69.3321V64.194L93.1196 66.763L89.859 69.3321ZM93.7588 67.2045L97.0194 69.7735H90.498L93.7588 67.2045ZM90.4982 63.6797H97.0196L93.759 66.2487L90.4982 63.6797ZM90.4982 63.0703L93.7588 60.5012L97.0194 63.0703H90.4982ZM89.0855 69.3321L85.8247 66.7632L89.0855 64.194V69.3321ZM88.4735 69.7735H81.9521L85.2129 67.2045L88.4735 69.7735ZM84.612 73.4963L81.3511 76.0654V70.9272L84.612 73.4963ZM81.9519 70.5352H88.4735L85.2127 73.1043L81.9519 70.5352ZM93.1196 73.4963L89.859 76.0654V70.9273L93.1196 73.4963ZM90.4982 70.5352H97.0196L93.759 73.1043L90.4982 70.5352ZM94.3327 66.763L97.5933 64.194V69.3321L94.3327 66.763ZM94.3327 60.0299L97.5933 57.4607V62.5988L94.3327 60.0299ZM93.7588 59.5457L90.4982 56.9766H97.0196L93.7588 59.5457ZM93.1196 60.0299L89.859 62.5988V57.4607L93.1196 60.0299ZM85.2127 66.2487L81.9519 63.6797H88.4733L85.2127 66.2487ZM84.612 66.763L81.3511 69.3321V64.194L84.612 66.763ZM76.6666 73.1043L73.4058 70.5352H79.9274L76.6666 73.1043ZM76.6666 73.9075L79.9274 76.4766H73.4058L76.6666 73.9075ZM85.2127 73.9075L88.4735 76.4766H81.9519L85.2127 73.9075ZM93.7588 73.9075L97.0194 76.4766H90.498L93.7588 73.9075ZM94.3327 73.4963L97.5933 70.9272V76.0653L94.3327 73.4963Z" fill="#D8D8D8"/>
<path d="M68.1092 10.9026C68.0651 10.9026 68.0211 10.8983 67.9783 10.8898L18.5911 1.07251L3.44696 10.114C3.33397 10.1789 3.19315 10.2062 3.0548 10.1902C2.91646 10.1741 2.79163 10.1159 2.70718 10.0281C2.62274 9.94031 2.58541 9.82989 2.60323 9.72061C2.62106 9.61134 2.69261 9.51194 2.80249 9.4438L18.355 0.158447L68.2392 10.0745C68.3653 10.0996 68.4754 10.1601 68.5489 10.2447C68.6224 10.3292 68.6541 10.432 68.6381 10.5338C68.6222 10.6355 68.5596 10.7291 68.4622 10.797C68.3648 10.8649 68.2393 10.9025 68.1092 10.9026Z" fill="#D7F4F7"/>
<path d="M17.8028 0.615479H18.5281C18.9026 0.615479 19.2617 0.732679 19.5265 0.941297C19.7912 1.14992 19.94 1.43286 19.94 1.72789V6.45725H14.6042L16.4462 1.41985C16.531 1.18798 16.7092 0.984123 16.9539 0.839027C17.1986 0.69393 17.4965 0.615469 17.8028 0.615479Z" fill="#BFBCAF"/>
<path d="M18.6775 75.4496H12.7704C12.4216 75.4496 12.0871 75.3405 11.8405 75.1461C11.5939 74.9518 11.4553 74.6883 11.4553 74.4135V6.40633C11.4553 6.13154 11.5939 5.86801 11.8405 5.6737C12.0871 5.4794 12.4216 5.37024 12.7704 5.37024H18.6775C19.0263 5.37024 19.3607 5.4794 19.6074 5.6737C19.854 5.86801 19.9925 6.13154 19.9925 6.40633V74.4134C19.9925 74.5494 19.9586 74.6842 19.8925 74.8099C19.8264 74.9356 19.7295 75.0499 19.6074 75.1461C19.4853 75.2423 19.3403 75.3187 19.1808 75.3707C19.0212 75.4228 18.8502 75.4496 18.6775 75.4496Z" fill="#D1CFC3"/>
<path d="M21.6836 73.0824H9.76511C9.59767 73.0824 9.43709 73.1348 9.3187 73.2281C9.2003 73.3214 9.13379 73.4479 9.13379 73.5798V76.5205C9.13379 76.6524 9.2003 76.7789 9.3187 76.8722C9.43709 76.9655 9.59767 77.0179 9.76511 77.0179H21.6836C21.851 77.0179 22.0116 76.9655 22.13 76.8722C22.2484 76.7789 22.3149 76.6524 22.3149 76.5205V73.5798C22.3149 73.4479 22.2484 73.3214 22.13 73.2281C22.0116 73.1348 21.851 73.0824 21.6836 73.0824Z" fill="#BFBCAF"/>
<path d="M68.6205 15.5269H10.418C10.3068 15.5269 10.1965 15.5112 10.0923 15.4804L2.30807 13.1825C2.1311 13.1302 1.97859 13.0367 1.87092 12.9143C1.76325 12.7919 1.70556 12.6466 1.70557 12.4977V10.0789C1.70557 9.88497 1.80335 9.69897 1.97741 9.56183C2.15147 9.4247 2.38754 9.34766 2.63369 9.34766H68.6205C68.8667 9.34766 69.1027 9.4247 69.2768 9.56183C69.4508 9.69897 69.5486 9.88497 69.5486 10.0789V14.7956C69.5487 14.8917 69.5247 14.9868 69.478 15.0755C69.4314 15.1642 69.363 15.2448 69.2768 15.3127C69.1907 15.3806 69.0883 15.4345 68.9757 15.4712C68.8631 15.508 68.7424 15.5269 68.6205 15.5269Z" fill="#D1CFC3"/>
<path d="M59.8881 20.8711V21.0126C59.5014 20.9279 59.1717 20.8807 58.774 20.8807C56.5515 20.8807 54.7649 22.3002 54.7649 24.0513C54.7649 25.8023 56.5442 27.2218 58.7665 27.2218C59.1642 27.2218 59.5012 27.1746 59.8879 27.0899V27.2695H75.5501V20.8711H59.8881Z" fill="#00B89C"/>
<path d="M75.4724 27.2219C77.6949 27.2219 79.4966 25.8024 79.4966 24.0513C79.4966 22.3003 77.6949 20.8807 75.4724 20.8807C73.2499 20.8807 71.4482 22.3003 71.4482 24.0513C71.4482 25.8024 73.2499 27.2219 75.4724 27.2219Z" fill="#009E83"/>
<path d="M63.4957 26.6064C63.1141 26.6064 62.7481 26.487 62.4783 26.2744C62.2085 26.0618 62.0569 25.7735 62.0569 25.4728V13.0046C62.0569 12.7039 62.2085 12.4156 62.4783 12.203C62.7481 11.9904 63.1141 11.871 63.4957 11.871C63.8773 11.871 64.2432 11.9904 64.513 12.203C64.7829 12.4156 64.9345 12.7039 64.9345 13.0046V25.4728C64.9345 25.6217 64.8973 25.7691 64.825 25.9067C64.7527 26.0442 64.6467 26.1692 64.5131 26.2744C64.3795 26.3797 64.2209 26.4632 64.0463 26.5202C63.8717 26.5771 63.6846 26.6064 63.4957 26.6064Z" fill="#597B91"/>
<path d="M67.0457 29.5559C64.2948 29.5559 62.0569 27.7927 62.0569 25.6253C62.0569 25.3246 62.2085 25.0363 62.4783 24.8237C62.7481 24.6111 63.1141 24.4917 63.4957 24.4917C63.8773 24.4917 64.2432 24.6111 64.513 24.8237C64.7829 25.0363 64.9345 25.3246 64.9345 25.6253C64.9345 26.5424 65.8813 27.2886 67.0456 27.2886C68.2098 27.2886 69.1567 26.5424 69.1567 25.6253C69.1567 25.3246 69.3082 25.0363 69.5781 24.8237C69.8479 24.6111 70.2139 24.4917 70.5954 24.4917C70.977 24.4917 71.343 24.6111 71.6128 24.8237C71.8826 25.0363 72.0342 25.3246 72.0342 25.6253C72.0344 27.7925 69.7965 29.5559 67.0457 29.5559Z" fill="#597B91"/>
<path d="M75.4724 26.1108C76.9161 26.1108 78.0864 25.1887 78.0864 24.0512C78.0864 22.9138 76.9161 21.9917 75.4724 21.9917C74.0287 21.9917 72.8584 22.9138 72.8584 24.0512C72.8584 25.1887 74.0287 26.1108 75.4724 26.1108Z" fill="#2B3B47"/>
<path d="M67.8087 20.8807H58.9795V27.2219H67.6151L67.8087 20.8807Z" fill="#00B89C"/>
<path d="M11.425 19.0566H19.9402V20.8435H11.425V19.0566Z" fill="#FF473E"/>
<path d="M66.026 9.70998C65.8879 9.58978 65.689 9.58049 65.536 9.68941L58.9214 14.4334V9.77884C58.9214 9.66291 58.798 9.55764 58.6636 9.51056C58.5979 9.48736 58.525 9.47972 58.4538 9.48856C58.3827 9.49741 58.3163 9.52236 58.2628 9.56038L51.3804 14.4364V10.0192C51.3804 9.99898 51.3591 9.97917 51.3543 9.95998C51.3744 9.87314 51.3371 9.78051 51.256 9.70998C51.118 9.58978 50.8599 9.58049 50.7069 9.68941L44.0327 14.4334V9.77884C44.0327 9.66291 43.9641 9.55764 43.8295 9.51056C43.6949 9.46318 43.5106 9.48283 43.4012 9.56038L36.4917 14.4364V10.0192C36.4917 9.99913 36.525 9.97932 36.5201 9.96028C36.5404 9.87344 36.5304 9.78051 36.4492 9.70998C36.3107 9.58963 36.1083 9.58049 35.9555 9.68941L29.3374 14.4334V9.77884C29.3374 9.66291 29.2266 9.55764 29.0922 9.51056C29.0254 9.48739 28.9515 9.47976 28.8794 9.48859C28.8072 9.49742 28.7398 9.52233 28.685 9.56038L21.7964 14.4364V10.0192C21.7964 9.99913 21.7877 9.97932 21.7828 9.96028C21.793 9.9158 21.79 9.87008 21.7741 9.82667C21.7581 9.78325 21.7297 9.74332 21.691 9.70998C21.5527 9.58963 21.2851 9.58049 21.1324 9.68941L14.4487 14.4334V9.77884C14.4487 9.66291 14.3926 9.55764 14.2581 9.51056C14.1235 9.46318 13.9816 9.48283 13.8721 9.56038L7.45743 14.1104C7.30428 14.2189 7.29558 14.4048 7.43326 14.5254C7.57093 14.6459 7.76409 14.6558 7.91743 14.5475L13.6753 10.4382V15.0956C13.6753 15.2119 13.8064 15.3171 13.9412 15.3642C13.9897 15.3811 14.0634 15.3895 14.1144 15.3895C14.2053 15.3895 14.2981 15.3635 14.3681 15.3135L21.0229 10.5695V15.0958C21.0229 15.2117 21.1173 15.317 21.2519 15.3641C21.3006 15.3811 21.3563 15.3895 21.4075 15.3895C21.4978 15.3895 21.5993 15.3636 21.6692 15.3141L28.564 10.4382V15.0956C28.564 15.2119 28.6405 15.3171 28.7753 15.3642C28.9101 15.4111 29.109 15.3912 29.2185 15.3135L35.9116 10.5695V15.0958C35.9116 15.2117 35.9515 15.317 36.0858 15.3641C36.2204 15.4114 36.3223 15.3918 36.4319 15.3142L43.2593 10.4382V15.0956C43.2593 15.2119 43.3778 15.3171 43.5126 15.3642C43.5611 15.3811 43.6286 15.3895 43.6796 15.3895C43.7705 15.3895 43.8728 15.3635 43.9428 15.3135L50.6069 10.5695V15.0958C50.6069 15.2117 50.6887 15.317 50.8233 15.3641C50.872 15.3811 50.9213 15.3895 50.9728 15.3895C51.0631 15.3895 51.1741 15.3636 51.2437 15.3141L58.148 10.4382V15.0956C58.148 15.2119 58.212 15.3171 58.3467 15.3642C58.4811 15.4113 58.6273 15.3915 58.7367 15.3135L66.0055 10.125C66.1583 10.0162 66.1643 9.83033 66.026 9.70998Z" fill="#F4F3EF"/>
<path d="M61.8149 14.2028H65.1765V16.8513H61.8149V14.2028Z" fill="#2B3B47"/>
<path d="M63.4956 15.5269C65.2638 15.5269 66.6971 14.3976 66.6971 13.0045C66.6971 11.6115 65.2638 10.4822 63.4956 10.4822C61.7275 10.4822 60.2942 11.6115 60.2942 13.0045C60.2942 14.3976 61.7275 15.5269 63.4956 15.5269Z" fill="#FF473E"/>
<path d="M63.4956 14.3286C64.4238 14.3286 65.1763 13.7358 65.1763 13.0045C65.1763 12.2731 64.4238 11.6803 63.4956 11.6803C62.5674 11.6803 61.8149 12.2731 61.8149 13.0045C61.8149 13.7358 62.5674 14.3286 63.4956 14.3286Z" fill="white"/>
<path d="M11.425 9.34766H19.94V15.527H11.425V9.34766Z" fill="#BFBCAF"/>
</svg>
