<svg width="64" height="84" viewBox="0 0 64 84" fill="none" xmlns="http://www.w3.org/2000/svg">
<path d="M13.1126 78.7176H11.206C9.53325 78.7176 8.17725 76.959 8.17725 74.7897V31.8829C8.17725 29.7135 9.53325 27.955 11.206 27.955H13.1126C14.7854 27.955 16.1414 29.7135 16.1414 31.8829V74.7897C16.1415 76.959 14.7854 78.7176 13.1126 78.7176ZM55.8231 74.7897V31.8829C55.8231 29.7135 54.4671 27.955 52.7944 27.955H50.8876C49.2149 27.955 47.8589 29.7135 47.8589 31.8829V74.7897C47.8589 76.959 49.2149 78.7176 50.8876 78.7176H52.7942C54.467 78.7176 55.8231 76.959 55.8231 74.7897Z" fill="#D5DEE4"/>
<path d="M60.5185 51.4023H3.4815C1.55875 51.4023 0 49.3808 0 46.8873V14.0932C0 11.5996 1.55875 9.57812 3.4815 9.57812H60.5186C62.4412 9.57812 64 11.5996 64 14.0932V46.8874C64 49.3808 62.4412 51.4023 60.5185 51.4023Z" fill="#FFB636"/>
<path d="M64 46.8873C64 49.3808 62.4412 51.4023 60.5185 51.4023H53.7944L64 35.81V46.8873ZM45.1074 51.4023L64 22.5376V14.0932C64 12.5 63.3631 11.1005 62.402 10.2969L35.4974 51.4023H45.1074ZM17.2003 51.4023H26.8102L54.1852 9.57812H44.5752L17.2003 51.4023ZM26.2781 9.57812L0.432125 49.0663C1.02513 50.4589 2.16812 51.4023 3.4815 51.4023H8.51325L35.8882 9.57812H26.2781ZM0 21.7718V36.4542L17.591 9.57812H7.981L0 21.7718Z" fill="#2B3B47"/>
</svg>
