<svg width="19" height="27" viewBox="0 0 19 27" fill="none" xmlns="http://www.w3.org/2000/svg">
<ellipse cx="9.5" cy="13.5" rx="9.5" ry="13" fill="#8C8484" fill-opacity="0.33"/>
<path d="M5.11536 9.03128C5.11536 8.57411 5.40364 8.20361 5.75935 8.20361H13.2406C13.5963 8.20361 13.8846 8.57411 13.8846 9.03128V18.9315C13.8846 19.3887 13.5963 19.7592 13.2406 19.7592H5.75935C5.40364 19.7592 5.11536 19.3887 5.11536 18.9315V9.03128ZM7.8245 17.8771V12.659H6.50857V17.8771H7.8245ZM7.16681 11.9462C7.62555 11.9462 7.9111 11.5461 7.9111 11.0448C7.90288 10.5328 7.6261 10.1435 7.17558 10.1435C6.72506 10.1435 6.43074 10.5335 6.43074 11.0448C6.43074 11.5461 6.71629 11.9462 7.15804 11.9462H7.16681ZM9.85677 17.8771V14.9629C9.85677 14.8069 9.86554 14.6509 9.90062 14.5397C9.99543 14.2284 10.2119 13.9056 10.5758 13.9056C11.0521 13.9056 11.2423 14.3837 11.2423 15.0857V17.8771H12.5582V14.8842C12.5582 13.2808 11.9093 12.5355 11.0434 12.5355C10.3451 12.5355 10.0322 13.0411 9.85677 13.3971V13.4152H9.848C9.85091 13.4091 9.85384 13.4031 9.85677 13.3971V12.659H8.54139C8.55783 13.1487 8.54139 17.8771 8.54139 17.8771H9.85677Z" fill="black"/>
</svg>
