<svg width="128" height="90" viewBox="0 0 128 90" fill="none" xmlns="http://www.w3.org/2000/svg">
<path d="M98.5401 55.7634C97.2601 54.1642 98.7801 52.5441 101.38 50.5486C105.5 47.3919 109.79 40.1467 105.26 32.8877C105.28 32.8459 104.38 31.6361 104.4 31.5944L102.66 31.5318C102.1 31.4762 83.0601 31.4484 63.9901 31.4484C44.9201 31.4484 25.8801 31.4762 25.3201 31.5318C25.3201 31.5318 22.7001 32.8459 22.7301 32.8877C18.2001 40.1467 22.4901 47.3919 26.6101 50.5486C29.2201 52.5441 30.7301 54.1642 29.4501 55.7634C28.2001 57.3209 24.6201 57.5504 24.6201 57.5504C24.6201 57.5504 25.3901 59.1496 27.3501 60.0118C29.1701 60.8114 31.4201 60.9991 32.9901 61.027C32.9901 61.027 38.9701 67.1109 55.0401 67.1109H72.9401C89.0201 67.1109 94.9901 61.027 94.9901 61.027C96.5601 60.9991 98.8101 60.8114 100.63 60.0118C102.59 59.1496 103.36 57.5504 103.36 57.5504C103.36 57.5504 99.7801 57.3209 98.5401 55.7634Z" fill="#543930"/>
<path d="M63.9902 67.104V60.3595L92.3402 58.7533L94.9802 61.02C94.9802 61.02 89.0002 67.104 72.9302 67.104H63.9902Z" fill="url(#paint0_radial_273_111)"/>
<path d="M94.8401 58.0997C90.4801 53.5246 99.8001 51.828 99.8001 51.828L99.8101 51.835C98.2301 53.2743 97.5301 54.5258 98.5201 55.7704C99.7701 57.3279 103.35 57.5574 103.35 57.5574C103.35 57.5574 98.5901 60.6376 94.8401 58.0997Z" fill="url(#paint1_radial_273_111)"/>
<path d="M105.28 32.8877C109.7 39.9173 105.62 47.2528 101.62 50.3748C101.07 50.8059 98.7199 52.4746 98.2199 53.8166C98.2199 53.8166 88.5799 44.562 85.6799 39.2011C85.0999 38.1234 84.5699 37.0178 84.4799 35.8775C84.4099 35.0223 84.5799 34.0141 85.2699 33.2909C86.1099 32.4079 104.76 32.1437 104.76 32.1437C104.76 32.1506 105.28 32.8877 105.28 32.8877Z" fill="url(#paint2_radial_273_111)"/>
<path d="M22.74 32.8877C18.32 39.9173 22.4 47.2528 26.4 50.3748C26.95 50.8059 29.3 52.4746 29.8 53.8166C29.8 53.8166 39.44 44.562 42.34 39.2011C42.92 38.1234 43.45 37.0178 43.54 35.8775C43.61 35.0223 43.44 34.0141 42.75 33.2909C41.91 32.4079 40.9 32.6443 39.43 32.6443C36.64 32.6443 24.45 32.1506 23.5 32.1506C23.51 32.1506 22.74 32.8877 22.74 32.8877Z" fill="url(#paint3_radial_273_111)"/>
<path d="M64.03 67.104V60.3595L35.68 58.7533L33.04 61.02C33.04 61.02 39.02 67.104 55.09 67.104H64.03Z" fill="url(#paint4_radial_273_111)"/>
<path d="M33.1799 58.0997C37.5399 53.5246 28.2199 51.828 28.2199 51.828L28.2099 51.835C29.7899 53.2743 30.4899 54.5258 29.4999 55.7704C28.2499 57.3279 24.6699 57.5574 24.6699 57.5574C24.6699 57.5574 29.4299 60.6376 33.1799 58.0997Z" fill="url(#paint5_radial_273_111)"/>
<path d="M116 86.6909V84.5215C116 72.8542 89.65 67.0761 64 67.097C38.51 67.1178 12 72.1589 12 84.5215V86.6909H116Z" fill="url(#paint6_linear_273_111)"/>
<path d="M63.9999 63.1547H54.9199V70.0939C54.9199 73.2297 58.6199 75.7746 63.1799 75.7746H64.8299C69.3899 75.7746 73.0899 73.2297 73.0899 70.0939V63.1547H63.9999Z" fill="#E59600"/>
<path d="M58.4998 86.6909H29.5498V70.8795C31.3398 70.3928 33.2298 69.9617 35.1898 69.5862C38.0798 69.0161 41.1298 68.5502 44.2898 68.1887C46.4298 67.9383 48.6198 67.7367 50.8398 67.5768L58.4998 86.6909Z" fill="url(#paint7_linear_273_111)"/>
<path d="M50.9599 86.691H36.2899L35.1899 69.5863C38.0799 69.0161 41.1299 68.5503 44.2899 68.1887L50.9599 86.691Z" fill="url(#paint8_linear_273_111)"/>
<path d="M98.45 71.0881V86.6909H69.5L77.15 67.6046C79.36 67.7715 81.55 67.994 83.68 68.2582C86.85 68.6545 89.91 69.1413 92.8 69.7392C94.77 70.1425 96.66 70.5945 98.45 71.0881Z" fill="url(#paint9_linear_273_111)"/>
<path d="M92.8 69.7392L91.71 86.6909H77.04L83.68 68.2582C86.85 68.6545 89.91 69.1412 92.8 69.7392Z" fill="url(#paint10_linear_273_111)"/>
<path d="M91.33 35.5646H36.67C30.78 35.5646 25.96 39.1385 25.96 43.4981C25.96 47.8577 30.78 51.4316 36.67 51.4316H91.32C97.21 51.4316 102.03 47.8577 102.03 43.4981C102.03 39.1385 97.22 35.5646 91.33 35.5646Z" fill="#E59600"/>
<path d="M64 8.22498C46.6 8.22498 30.48 21.1647 30.48 39.7852C30.48 58.3083 47.09 67.4656 64 67.4656C80.91 67.4656 97.52 58.3083 97.52 39.7852C97.52 21.1647 81.4 8.22498 64 8.22498Z" fill="#FFCA28"/>
<path d="M48.4002 44.9374C51.123 44.9374 53.3302 43.3498 53.3302 41.3913C53.3302 39.4329 51.123 37.8452 48.4002 37.8452C45.6775 37.8452 43.4702 39.4329 43.4702 41.3913C43.4702 43.3498 45.6775 44.9374 48.4002 44.9374Z" fill="#404040"/>
<path d="M79.6004 44.9374C82.3232 44.9374 84.5304 43.3498 84.5304 41.3913C84.5304 39.4329 82.3232 37.8452 79.6004 37.8452C76.8776 37.8452 74.6704 39.4329 74.6704 41.3913C74.6704 43.3498 76.8776 44.9374 79.6004 44.9374Z" fill="#404040"/>
<path d="M55.6401 35.1405C54.7101 34.2853 52.5701 33.0476 48.4101 33.0476C44.2501 33.0476 42.1001 34.2922 41.1801 35.1405C40.7701 35.516 40.8701 35.954 41.1601 36.2182C41.4201 36.4616 42.2001 36.691 43.0601 36.4894C43.9201 36.2878 45.6001 35.6828 48.4101 35.6689C51.2201 35.6828 52.9001 36.2878 53.7601 36.4894C54.6201 36.691 55.4001 36.4685 55.6601 36.2182C55.9401 35.954 56.0501 35.516 55.6401 35.1405ZM86.8301 35.1405C85.9001 34.2853 83.7601 33.0476 79.6001 33.0476C75.4401 33.0476 73.2901 34.2922 72.3701 35.1405C71.9601 35.516 72.0601 35.954 72.3501 36.2182C72.6101 36.4616 73.3901 36.691 74.2501 36.4894C75.1101 36.2878 76.7901 35.6828 79.6001 35.6689C82.4101 35.6828 84.0901 36.2878 84.9501 36.4894C85.8101 36.691 86.5901 36.4685 86.8501 36.2182C87.1301 35.954 87.2401 35.516 86.8301 35.1405Z" fill="#6D4C41"/>
<path d="M67.8601 47.823C67.7501 47.7951 67.6501 47.7743 67.5401 47.7673H60.4601C60.3501 47.7743 60.2401 47.7951 60.1401 47.823C59.5001 48.0037 59.1501 48.4626 59.4501 48.9563C59.7501 49.45 61.1601 50.8267 64.0001 50.8267C66.8401 50.8267 68.2501 49.443 68.5501 48.9563C68.8501 48.4626 68.5001 48.0037 67.8601 47.823Z" fill="#E59600"/>
<path d="M72.4199 53.4411C69.2399 54.7552 58.7899 54.7552 55.6099 53.4411C53.7799 52.6832 51.9099 53.8443 52.6699 54.9986C53.4199 56.1319 59.1099 58.7672 64.0399 58.7672C68.9699 58.7672 74.5899 56.1319 75.3399 54.9986C76.0899 53.8443 74.2499 52.6832 72.4199 53.4411Z" fill="#795548"/>
<path d="M64.0002 8.19714C26.7402 8.19714 29.2602 36.99 29.2602 36.99C28.8002 42.5595 30.2902 45.9874 31.0802 47.371C31.2202 47.6144 31.7102 47.5935 31.8002 47.3432C32.7902 44.5828 36.1602 34.9667 35.8302 33.291C35.8302 33.291 47.1802 31.7265 58.0002 26.1849C60.2002 25.0585 62.5902 24.0989 65.1302 23.3967C78.7202 19.635 81.5602 26.0528 81.5602 26.0528C81.5602 26.0528 90.9802 24.7943 93.8202 33.8889C94.8902 37.296 95.6102 42.7542 96.2202 46.5714C96.2602 46.8426 96.7902 46.8982 96.9402 46.6479C97.8902 45.1321 100.04 42.1423 100.24 39.0621C100.93 28.7853 92.1802 8.19714 64.0002 8.19714Z" fill="#543930"/>
<path d="M64.4101 6.00684C17.6501 6.00684 21.1701 38.2902 21.1701 38.2902C21.1701 38.2902 33.3801 30.7808 64.6701 30.7808C95.9601 30.7808 106.77 37.5949 106.77 37.5949C106.77 37.5949 111.17 6.00684 64.4101 6.00684Z" fill="url(#paint11_radial_273_111)"/>
<path d="M74.7199 29.8074H53.9199V6.79258C53.9199 4.85266 56.1799 3.28125 58.9699 3.28125H69.6699C72.4599 3.28125 74.7199 4.85266 74.7199 6.79258V29.8074Z" fill="url(#paint12_linear_273_111)"/>
<mask id="mask0_273_111" style="mask-type:luminance" maskUnits="userSpaceOnUse" x="21" y="6" width="86" height="33">
<path d="M64.4101 6.00684C17.6501 6.00684 21.1701 38.2902 21.1701 38.2902C21.1701 38.2902 33.3801 30.7808 64.6701 30.7808C95.9601 30.7808 106.77 37.5949 106.77 37.5949C106.77 37.5949 111.17 6.00684 64.4101 6.00684Z" fill="white"/>
</mask>
<g mask="url(#mask0_273_111)">
<path opacity="0.5" d="M47.1201 7.6135L54.0701 6.01428V22.2081C52.6601 15.2063 50.6401 10.1444 47.1201 7.6135Z" fill="#EDBF00"/>
</g>
<mask id="mask1_273_111" style="mask-type:luminance" maskUnits="userSpaceOnUse" x="21" y="6" width="86" height="33">
<path d="M64.4101 6.00684C17.6501 6.00684 21.1701 38.2902 21.1701 38.2902C21.1701 38.2902 33.3801 30.7808 64.6701 30.7808C95.9601 30.7808 106.77 37.5949 106.77 37.5949C106.77 37.5949 111.17 6.00684 64.4101 6.00684Z" fill="white"/>
</mask>
<g mask="url(#mask1_273_111)">
<path opacity="0.5" d="M81.7103 7.6135L74.7603 6.01428V22.2081C76.1703 15.2063 78.1903 10.1444 81.7103 7.6135Z" fill="#EDBF00"/>
</g>
<path d="M109.53 35.9539C109.28 35.6619 108.89 35.4394 108.46 35.2656C90.3599 28.0204 63.9999 28.2638 63.9999 28.2638C63.9999 28.2638 37.6399 28.0204 19.5399 35.2656C19.0999 35.4394 18.7199 35.6619 18.4699 35.9539C17.9399 36.5797 17.4999 37.7687 19.2199 39.4861C19.2199 39.4861 30.1699 31.942 63.9999 31.4692C97.8199 31.9489 108.78 39.4861 108.78 39.4861C110.5 37.7687 110.06 36.5797 109.53 35.9539Z" fill="#FFEA00"/>
<defs>
<radialGradient id="paint0_radial_273_111" cx="0" cy="0" r="1" gradientUnits="userSpaceOnUse" gradientTransform="translate(78.5012 57.3738) scale(23.635 8.07224)">
<stop offset="0.728" stop-color="#6D4C41" stop-opacity="0"/>
<stop offset="1" stop-color="#6D4C41"/>
</radialGradient>
<radialGradient id="paint1_radial_273_111" cx="0" cy="0" r="1" gradientUnits="userSpaceOnUse" gradientTransform="translate(101.312 54.9446) rotate(161.977) scale(6.60511 3.75551)">
<stop offset="0.663" stop-color="#6D4C41"/>
<stop offset="1" stop-color="#6D4C41" stop-opacity="0"/>
</radialGradient>
<radialGradient id="paint2_radial_273_111" cx="0" cy="0" r="1" gradientUnits="userSpaceOnUse" gradientTransform="translate(83.1369 41.4551) rotate(-96.1409) scale(20.9531 24.9669)">
<stop offset="0.725" stop-color="#6D4C41" stop-opacity="0"/>
<stop offset="1" stop-color="#6D4C41"/>
</radialGradient>
<radialGradient id="paint3_radial_273_111" cx="0" cy="0" r="1" gradientUnits="userSpaceOnUse" gradientTransform="translate(44.8862 41.4545) rotate(-83.8591) scale(20.9531 24.9669)">
<stop offset="0.725" stop-color="#6D4C41" stop-opacity="0"/>
<stop offset="1" stop-color="#6D4C41"/>
</radialGradient>
<radialGradient id="paint4_radial_273_111" cx="0" cy="0" r="1" gradientUnits="userSpaceOnUse" gradientTransform="translate(49.521 57.3738) rotate(180) scale(23.635 8.07224)">
<stop offset="0.728" stop-color="#6D4C41" stop-opacity="0"/>
<stop offset="1" stop-color="#6D4C41"/>
</radialGradient>
<radialGradient id="paint5_radial_273_111" cx="0" cy="0" r="1" gradientUnits="userSpaceOnUse" gradientTransform="translate(26.7125 54.9454) rotate(18.0225) scale(6.60416 3.75497)">
<stop offset="0.663" stop-color="#6D4C41"/>
<stop offset="1" stop-color="#6D4C41" stop-opacity="0"/>
</radialGradient>
<linearGradient id="paint6_linear_273_111" x1="64" y1="67.0977" x2="64" y2="96.1736" gradientUnits="userSpaceOnUse">
<stop offset="0.003" stop-color="#448AFF"/>
<stop offset="0.404" stop-color="#3B7DFF"/>
<stop offset="1" stop-color="#2962FF"/>
</linearGradient>
<linearGradient id="paint7_linear_273_111" x1="44.0248" y1="68.7463" x2="44.0248" y2="94.9728" gradientUnits="userSpaceOnUse">
<stop offset="0.003" stop-color="#FF9100"/>
<stop offset="0.44" stop-color="#FF8400"/>
<stop offset="1" stop-color="#FF6D00"/>
</linearGradient>
<linearGradient id="paint8_linear_273_111" x1="43.0749" y1="68.6017" x2="43.0749" y2="95.518" gradientUnits="userSpaceOnUse">
<stop offset="0.003" stop-color="#FFFF00"/>
<stop offset="0.678" stop-color="#FFF200"/>
<stop offset="1" stop-color="#FFEA00"/>
</linearGradient>
<linearGradient id="paint9_linear_273_111" x1="83.975" y1="68.772" x2="83.975" y2="94.9603" gradientUnits="userSpaceOnUse">
<stop offset="0.003" stop-color="#FF9100"/>
<stop offset="0.44" stop-color="#FF8400"/>
<stop offset="1" stop-color="#FF6D00"/>
</linearGradient>
<linearGradient id="paint10_linear_273_111" x1="84.92" y1="68.6698" x2="84.92" y2="95.4845" gradientUnits="userSpaceOnUse">
<stop offset="0.003" stop-color="#FFFF00"/>
<stop offset="0.678" stop-color="#FFF200"/>
<stop offset="1" stop-color="#FFEA00"/>
</linearGradient>
<radialGradient id="paint11_radial_273_111" cx="0" cy="0" r="1" gradientUnits="userSpaceOnUse" gradientTransform="translate(64.0001 22.1512) scale(34.638 23.617)">
<stop stop-color="#FFFF00"/>
<stop offset="0.325" stop-color="#FFF600"/>
<stop offset="0.854" stop-color="#FFDE00"/>
<stop offset="0.998" stop-color="#FFD600"/>
</radialGradient>
<linearGradient id="paint12_linear_273_111" x1="64.3219" y1="3.7923" x2="64.3219" y2="29.5453" gradientUnits="userSpaceOnUse">
<stop stop-color="#FFFF00"/>
<stop offset="0.446" stop-color="#FFF900"/>
<stop offset="1" stop-color="#FFEA00"/>
</linearGradient>
</defs>
</svg>
