<svg width="65" height="64" viewBox="0 0 65 64" fill="none" xmlns="http://www.w3.org/2000/svg">
<g clip-path="url(#clip0_361_94)">
<path d="M8.23681 56.8049C4.97681 45.6349 4.97681 22.7349 4.97681 22.7349L46.9768 22.5699C46.9768 22.5699 46.9768 43.3149 44.5368 56.6649L8.23681 56.8049Z" fill="#6D4C41"/>
<path d="M25.9768 42.845C37.5748 42.845 46.9768 34.0026 46.9768 23.095C46.9768 12.1873 37.5748 3.34497 25.9768 3.34497C14.3788 3.34497 4.97681 12.1873 4.97681 23.095C4.97681 34.0026 14.3788 42.845 25.9768 42.845Z" fill="#6D4C41"/>
<path d="M4.15674 59.085V64.03H47.7267V59.085C47.7267 51.5 37.0317 47.65 26.1067 47.665C15.2517 47.68 4.15674 51.055 4.15674 59.085Z" fill="#1565C0"/>
<path d="M25.9519 45.165H21.4119V49.96C21.4119 52.13 23.2619 53.89 25.5419 53.89H26.3669C28.6469 53.89 30.4969 52.13 30.4969 49.96V45.165H25.9519Z" fill="#E49500"/>
<path d="M25.9267 6.82495C13.7517 6.82495 10.5667 16.2599 10.5667 29.5199C10.5667 42.7749 20.0117 46.8199 25.9267 46.8199C31.8417 46.8199 41.2867 42.7749 41.2867 29.5199C41.2867 16.2649 38.1017 6.82495 25.9267 6.82495Z" fill="#FBC11B"/>
<path d="M30.5917 39.095H21.3617C20.8317 39.095 20.6067 39.45 20.9567 39.985C21.4467 40.73 23.2617 42.165 25.9767 42.165C28.6917 42.165 30.5067 40.73 30.9967 39.985C31.3467 39.45 31.1217 39.095 30.5917 39.095ZM20.7267 30.405C20.7267 31.825 19.7767 32.98 18.5967 32.98C17.4217 32.98 16.4617 31.83 16.4617 30.405C16.4617 28.98 17.4167 27.83 18.5967 27.83C19.7767 27.83 20.7267 28.98 20.7267 30.405ZM31.2267 30.405C31.2267 31.825 32.1767 32.98 33.3617 32.98C34.5367 32.98 35.4917 31.83 35.4917 30.405C35.4917 28.98 34.5367 27.83 33.3617 27.83C32.1767 27.83 31.2267 28.98 31.2267 30.405Z" fill="#444444"/>
<path d="M28.1818 35.175C27.3968 35.395 26.5818 35.505 25.9518 35.505C25.3218 35.505 24.5068 35.395 23.7218 35.175C23.3868 35.08 23.2518 35.4 23.3768 35.61C23.6268 36.05 24.6268 36.93 25.9518 36.93C27.2768 36.93 28.2768 36.045 28.5268 35.61C28.6468 35.395 28.5168 35.08 28.1818 35.175Z" fill="#E49500"/>
<path d="M30.5166 17.255C28.9016 18.81 20.8716 26.045 9.80664 27.93V13.1C9.80664 13.1 14.5816 3.625 26.0416 3.625C37.5016 3.625 42.2766 13.34 42.2766 13.34V27.935C42.2766 27.935 34.7666 25.055 30.9966 17.35C30.9066 17.16 30.6666 17.11 30.5166 17.255Z" fill="#6D4C41"/>
<path d="M18.3367 48.27C17.4967 48.41 16.6767 48.575 15.8767 48.765C14.7217 49.04 13.6117 49.365 12.5717 49.745C11.7567 50.04 10.9767 50.37 10.2517 50.735V64.015H23.3817L20.2917 54.36L18.3367 48.27ZM39.4417 49.855C38.3967 49.455 37.2867 49.11 36.1267 48.815C35.2817 48.605 34.4117 48.415 33.5217 48.265L31.5717 54.36L28.4817 64.015H41.6117V50.815C40.9267 50.465 40.1967 50.145 39.4417 49.855Z" fill="#FF6D00"/>
<path d="M12.5667 49.745L13.4717 64.015H20.4717L15.8717 48.765C14.7167 49.04 13.6117 49.365 12.5667 49.745ZM36.1267 48.815L31.5417 64.015H38.5417L39.4417 49.855C38.3967 49.455 37.2867 49.11 36.1267 48.815Z" fill="#FFFF00"/>
<path d="M25.9268 24.63C37.9584 24.63 47.7118 22.0825 47.7118 18.94C47.7118 15.7975 37.9584 13.25 25.9268 13.25C13.8953 13.25 4.14185 15.7975 4.14185 18.94C4.14185 22.0825 13.8953 24.63 25.9268 24.63Z" fill="#FFEA00"/>
<path d="M25.9268 23.595C37.9584 23.595 47.7118 21.0475 47.7118 17.905C47.7118 14.7625 37.9584 12.215 25.9268 12.215C13.8953 12.215 4.14185 14.7625 4.14185 17.905C4.14185 21.0475 13.8953 23.595 25.9268 23.595Z" fill="#FFFF00"/>
<path d="M45.3768 17.14C45.0518 11.01 40.4318 0.709999 26.3068 0.444999C26.3068 0.444999 26.0418 0.434999 25.9268 0.439999C25.8118 0.439999 25.5468 0.444999 25.5468 0.444999C11.4168 0.709999 6.79681 11.01 6.47681 17.14C6.47681 21.935 45.3768 21.935 45.3768 17.14Z" fill="#FFFF00"/>
<mask id="mask0_361_94" style="mask-type:luminance" maskUnits="userSpaceOnUse" x="6" y="0" width="40" height="21">
<path d="M45.3768 17.14C45.0518 11.01 40.4318 0.709999 26.3068 0.444999C26.3068 0.444999 26.0418 0.434999 25.9268 0.439999C25.8118 0.439999 25.5468 0.444999 25.5468 0.444999C11.4168 0.709999 6.79681 11.01 6.47681 17.14C6.47681 21.935 45.3768 21.935 45.3768 17.14Z" fill="white"/>
</mask>
<g mask="url(#mask0_361_94)">
<path d="M17.2769 1.6158L20.7519 0.440796V12.3158C20.0469 7.1858 19.0369 3.4708 17.2769 1.6158ZM34.5719 1.6158L31.0969 0.440796V12.3158C31.8069 7.1858 32.8169 3.4708 34.5719 1.6158Z" fill="#FFEA00"/>
</g>
<path d="M29.9517 18.805H21.9017C21.1667 18.805 20.5667 18.205 20.5667 17.47V1.47001C20.5667 0.73501 21.1667 0.13501 21.9017 0.13501H29.9517C30.6867 0.13501 31.2867 0.73501 31.2867 1.47001V17.47C31.2867 18.21 30.6867 18.805 29.9517 18.805Z" fill="#FFFF00"/>
<path d="M51.0968 53.805C51.8468 53.99 52.3268 54.52 52.6618 55.18C53.4968 55.03 54.9368 54.88 55.3568 54.89C55.8518 54.905 56.5068 54.96 56.6168 55.975C56.6868 56.635 56.4368 57.18 55.5918 57.26C55.2768 57.29 54.9518 57.31 54.6318 57.325L54.7468 57.695C55.0418 57.69 55.3068 57.68 55.5118 57.68C56.3668 57.67 56.8518 58.125 56.8518 59.03C56.8518 59.825 56.1668 60.2 55.6668 60.23C55.4018 60.245 54.6618 60.205 53.9318 60.135L53.8568 60.29L53.8268 60.335C54.2868 60.405 54.7268 60.48 55.0368 60.535C55.8718 60.685 56.2718 61.24 56.1768 61.9C56.0618 62.7 55.3468 62.92 54.8518 62.905C54.4818 62.895 53.1818 62.69 52.3118 62.505L52.1418 62.75C52.2018 62.76 52.2668 62.77 52.3368 62.78C52.3468 62.78 52.3568 62.785 52.3718 62.785L52.5468 62.815C52.5618 62.815 52.5718 62.82 52.5868 62.82C52.6568 62.83 52.7268 62.845 52.7968 62.855H52.8068C52.8818 62.865 52.9568 62.88 53.0318 62.895C53.0468 62.895 53.0618 62.9 53.0718 62.9L53.2468 62.93C53.2718 62.935 53.2918 62.94 53.3168 62.94C53.3668 62.95 53.4168 62.96 53.4618 62.965L53.5368 62.98C53.5868 62.99 53.6318 63 53.6768 63.005L53.7468 63.02C53.8118 63.035 53.8818 63.045 53.9418 63.06C54.7068 63.22 54.9968 63.565 54.9018 64.17C54.7718 65.02 53.9168 65.21 53.4618 65.165C53.0068 65.125 51.4768 64.81 50.9768 64.59L50.8868 64.545L50.7118 64.795C48.4618 64.645 46.8468 63.705 46.8468 63.705C45.5268 62.965 45.3068 62.395 45.0868 61.49C44.8368 60.46 44.8968 59.24 44.9068 59.05C44.9868 57 45.4418 55.675 47.0968 54.575C47.4968 54.31 48.0818 53.845 49.3768 53.695C49.8768 53.645 50.5968 53.68 51.0968 53.805Z" fill="#FBC11B"/>
<path d="M52.9667 57.21C52.9667 57.21 52.9867 56.18 52.6617 55.18L53.0217 55.115C53.0217 55.115 53.2767 55.825 53.3667 56.875C53.3817 57.045 53.3867 57.2 53.3867 57.35L53.7067 57.33L55.8517 57.21C55.8517 57.21 55.6917 57.24 55.6917 57.48C55.6917 57.58 55.7517 57.645 55.7967 57.685C55.7067 57.675 55.6067 57.665 55.5067 57.67L53.3767 57.725C53.3717 57.785 53.3717 57.845 53.3667 57.91C53.3167 58.78 53.1117 59.615 52.6267 59.935C54.2367 60.125 55.6667 60.22 55.6667 60.22C55.3867 60.335 55.5067 60.675 55.5067 60.675C54.4217 60.38 51.7917 60.225 51.7917 60.225C50.6817 60.13 50.5317 60.88 50.5317 60.88C50.3267 61.785 51.3117 62.2 51.3117 62.2C51.4417 62.275 52.6167 62.51 53.4567 62.67L54.2967 62.825L54.5317 62.87C54.5067 62.865 54.4067 62.86 54.3667 63.025C54.3467 63.105 54.3667 63.16 54.3817 63.195C54.2567 63.14 54.1067 63.09 53.9317 63.055C53.5367 62.975 52.3417 62.78 52.2517 62.765L51.9517 62.725C50.9617 62.595 50.7217 62.77 50.7217 62.77C50.1717 63.06 50.3317 63.76 50.3317 63.76C50.4517 64.435 51.1967 64.645 51.1967 64.645C51.4817 64.73 52.9917 65.095 52.9917 65.095L50.7067 64.795C50.5467 64.745 50.4867 64.67 50.3967 64.6C49.5917 63.94 49.9317 63.045 49.9317 63.045C50.0567 62.7 50.3167 62.545 50.3167 62.545C50.4717 62.45 50.6517 62.4 50.8367 62.38C49.9017 61.885 50.0517 60.885 50.0517 60.885C50.1717 60.27 50.6167 60.01 50.9667 59.9C50.9367 59.875 50.9017 59.85 50.8717 59.82C50.8717 59.82 50.2717 59.425 50.4917 57.73C50.5667 57.16 50.5567 57.08 50.4967 56.72C50.4967 56.72 50.2817 55.95 49.6417 56.195C49.6417 56.195 49.4267 56.25 49.0917 56.515C49.0917 56.515 48.8217 56.725 48.8267 56.395C48.8267 56.295 48.8967 56.115 49.0317 55.96C49.0317 55.96 49.1717 55.795 49.5167 55.7C49.5167 55.7 50.4117 55.345 50.8567 56.24C51.0917 56.71 51.0467 57.02 50.9717 57.5C50.9717 57.5 50.8317 59.015 51.2267 59.5C51.2267 59.5 51.6167 59.945 52.2417 59.67C52.2467 59.68 53.0967 59.21 52.9667 57.21Z" fill="#E49500"/>
<path d="M48.2917 63.08L51.8967 37.12L55.8867 37.72L51.5817 63.575C51.4817 64.24 50.6667 64.67 49.7667 64.535C48.8567 64.4 48.1917 63.745 48.2917 63.08Z" fill="#F79329"/>
<path d="M43.8816 35.26C45.5966 32.655 48.5766 31.58 50.8966 31.39C51.4966 31.34 52.0966 31.42 52.5366 31.47C53.3016 31.56 54.9016 31.88 54.9016 31.88L56.8816 32.225C56.9316 32.235 56.9766 32.25 57.0266 32.26C57.4466 32.325 57.9216 32.365 58.3516 32.325C58.8866 32.275 59.1466 31.97 59.7516 31.86C60.0416 31.81 60.3616 31.81 60.6366 31.835C60.7316 31.83 60.8266 31.835 60.9216 31.855L61.1216 31.89C61.2316 31.905 61.3016 31.92 61.3016 31.92L63.0616 32.225C63.7616 32.345 64.2466 32.93 64.1466 33.525L63.1116 39.515C63.0066 40.11 62.3516 40.495 61.6516 40.375L59.8916 40.07C59.8916 40.07 59.8166 40.06 59.7116 40.04L59.5116 40.005C59.4166 39.99 59.3216 39.96 59.2366 39.93C58.9716 39.855 58.2066 38.91 57.9516 38.765C57.4166 38.46 57.2716 39.16 56.6016 39.34C56.2216 39.44 55.7666 39.36 55.6466 39.34L55.4866 39.31C55.3566 39.29 55.2366 39.27 55.1716 39.255L51.6816 38.65C51.1916 38.565 50.8166 38.255 50.6616 37.875C50.6216 37.77 50.5166 37.44 50.4966 37.355C50.3016 36.495 49.9966 35.335 48.9766 35.16C47.8616 34.965 46.6366 35.765 46.6366 35.765C46.6366 35.765 45.5566 36.525 44.5566 36.19C43.5666 35.86 43.8816 35.26 43.8816 35.26Z" fill="#78A3AD"/>
<path d="M52.4118 31.04C52.3368 31.265 52.3318 31.535 52.3168 31.77C52.3018 31.98 52.4118 32.195 52.5768 32.33C52.7468 32.47 52.9868 32.565 53.1968 32.635C53.6168 32.775 54.0368 32.885 54.4768 32.94C54.6968 32.97 54.9118 32.955 55.1318 32.94C55.3418 32.93 55.5618 32.935 55.7668 32.87C55.9468 32.815 56.1518 32.775 56.3268 32.7C56.5468 32.605 56.6718 32.575 56.7468 32.34C56.8168 32.12 56.8768 31.915 56.9018 31.685C56.9368 31.365 56.8968 31.16 56.6168 30.975C56.0868 30.62 55.3868 30.53 54.7768 30.45C54.2018 30.375 53.5718 30.37 53.0268 30.535C52.7068 30.64 52.5168 30.72 52.4118 31.04Z" fill="#F79329"/>
<path d="M60.5316 34.465C60.1266 34.34 59.9716 34.24 59.8766 34.065C59.7516 33.825 59.8516 33.465 59.9466 33.21C60.0316 32.975 60.3766 32.9 60.8016 32.955C61.2266 33.01 62.1266 33.13 62.2466 33.16C62.4116 33.2 62.5666 33.265 62.6766 33.355C62.9866 33.615 62.9866 34.12 62.7666 34.445C62.6366 34.64 62.4116 34.7 62.1716 34.705C61.9116 34.715 60.7966 34.55 60.5316 34.465ZM57.1816 34.755C56.5466 34.86 55.7316 34.82 55.5116 34.82C54.6816 34.815 53.6066 34.685 52.5716 34.425C51.4966 34.155 50.9866 33.645 50.3866 33.47C49.9166 33.335 49.3466 33.395 48.8716 33.335C48.8216 33.33 48.5466 33.295 48.4716 33.185C48.3466 32.99 48.5966 32.835 49.0316 32.69C49.2366 32.62 50.1766 32.34 51.1466 32.33C51.2016 32.33 51.4366 32.335 51.5416 32.48C52.0116 33.125 52.3066 33.43 53.1566 33.62C53.9316 33.795 54.7566 33.91 55.7416 33.88C56.7266 33.85 56.7066 33.35 57.2166 33.4C57.3366 33.41 57.4916 33.43 57.6266 33.455C57.9216 33.515 57.9366 33.7 57.9166 33.82C57.8866 34.01 57.8266 34.25 57.8016 34.38C57.7566 34.63 57.3766 34.725 57.1816 34.755Z" fill="white"/>
<path d="M55.6118 60.2251H55.6668C56.1618 60.1951 56.8468 59.8201 56.8518 59.0251C56.8518 58.1551 56.4068 57.7051 55.6118 57.6801L55.5768 57.4951L55.8368 57.4801C56.2768 57.3751 56.5068 57.1101 56.5868 56.7701C56.6168 56.7201 56.6268 56.1501 56.6218 56.0851C56.5818 55.5501 56.3868 55.3001 56.3868 55.3001C56.1868 54.7901 54.9568 54.9051 54.9568 54.9051L52.7118 55.2051C52.6318 55.1801 52.5518 55.1551 52.4768 55.1301C52.1518 54.6201 51.7168 54.2251 51.0918 54.0701C50.5918 53.9501 49.8768 53.9101 49.3718 53.9701C48.0768 54.1201 47.4918 54.5851 47.0918 54.8501C47.0068 54.9051 46.9368 54.9651 46.8618 55.0251C47.3168 55.8501 48.0068 56.7151 48.8518 56.5701C48.9068 56.4451 48.9968 56.3151 49.0368 56.2701C49.2168 56.0751 49.4668 55.9351 49.7318 55.9051C50.1468 55.8551 50.5768 56.0601 50.8018 56.4101C51.1518 56.9501 50.7468 57.6651 50.7218 58.3101C50.7118 58.6151 50.9618 58.9101 51.0218 59.2101C51.0768 59.4951 51.1868 59.7951 51.4318 59.9501C51.4468 59.9601 51.4718 59.9601 51.4868 59.9701C51.4718 60.0201 51.4368 60.1201 51.3968 60.2501C51.2368 60.2601 51.0818 60.2901 50.9468 60.3651C50.6368 60.5351 50.4768 60.9101 50.5168 61.2551C50.5468 61.5101 50.6818 61.7451 50.8718 61.9201C50.7518 62.3101 50.6518 62.6601 50.6018 62.8651C50.2568 63.1301 50.2218 63.6951 50.4618 64.0701C50.7118 64.4651 51.1718 64.6801 51.6268 64.7951C52.0818 64.9101 52.5518 64.9501 52.9968 65.1001C52.9718 65.0951 52.9518 65.0951 52.9268 65.0901C53.1518 65.1301 53.3418 65.1601 53.4618 65.1701C53.9118 65.2101 54.7718 65.0201 54.9018 64.1751C54.9768 63.6901 54.7968 63.3751 54.3318 63.1851C54.2968 63.0601 54.2368 62.9201 54.2018 62.8151C54.2868 62.8301 54.3768 62.8501 54.4618 62.8651C54.6268 62.8851 54.7668 62.9001 54.8518 62.9001C55.3468 62.9151 56.0668 62.6951 56.1768 61.8951C56.2518 61.3651 56.0068 60.9101 55.4768 60.6701C55.2818 60.6301 55.0818 60.6001 54.8868 60.5651C54.9668 60.4351 55.0468 60.3051 55.1268 60.1801L55.6118 60.2251Z" fill="#FBC11B"/>
<path d="M55.8316 57.695C55.7616 57.605 55.7467 57.46 55.7467 57.46H55.7316C55.5516 57.445 53.3966 57.355 53.3966 57.355C53.3866 56.66 53.1017 55.83 52.9067 55.165C52.7767 55.15 52.6216 55.165 52.4866 55.12C52.6566 55.775 52.9717 56.54 52.9917 57.21C53.0067 57.66 52.9766 58.105 52.8816 58.545C52.8066 58.9 52.6866 59.26 52.4266 59.515C52.1666 59.77 51.7417 59.875 51.4367 59.68C51.1917 59.525 51.0867 59.225 51.0267 58.94C50.9667 58.64 50.9417 58.335 50.9567 58.035C50.9817 57.39 51.1567 56.685 50.8117 56.145C50.5867 55.795 50.1517 55.59 49.7417 55.64C49.4767 55.67 49.2267 55.81 49.0467 56.005C48.9617 56.1 48.6317 56.57 48.9717 56.58C49.0667 56.58 49.1517 56.515 49.2267 56.455C49.4567 56.27 49.7467 56.1 50.0317 56.185C50.3817 56.29 50.5167 56.715 50.5317 57.08C50.5517 57.58 50.4466 58.075 50.4466 58.57C50.4466 59.07 50.5816 59.605 50.9666 59.92C50.4466 60.035 50.0617 60.55 50.0467 61.085C50.0317 61.62 50.3667 62.13 50.8317 62.39C50.3967 62.4 50.0167 62.75 49.9017 63.17C49.7867 63.59 49.9167 64.05 50.1816 64.395C50.2966 64.545 50.4366 64.675 50.6066 64.755C50.6416 64.77 50.6817 64.78 50.7217 64.79L50.8817 64.56L50.8267 64.635L50.7166 64.79C50.8316 64.825 50.9567 64.845 51.0767 64.865C51.1467 64.875 51.2167 64.885 51.2917 64.89C51.8366 64.96 52.3816 65.03 52.9266 65.095C52.9516 65.1 52.9717 65.1 52.9967 65.105C52.5517 64.955 52.0816 64.915 51.6266 64.8C51.1716 64.685 50.7166 64.47 50.4616 64.075C50.2116 63.68 50.2567 63.075 50.6517 62.83C50.8917 62.68 51.1866 62.69 51.4666 62.71C51.9116 62.74 52.3516 62.795 52.7916 62.865C52.9116 62.885 53.0316 62.905 53.1466 62.925L53.2366 62.94C53.2616 62.945 53.2816 62.95 53.3066 62.95C53.3566 62.96 53.4066 62.97 53.4516 62.975L53.5266 62.99C53.5767 63 53.6216 63.01 53.6666 63.015L53.7366 63.03C53.8016 63.045 53.8716 63.055 53.9316 63.07C54.0666 63.1 54.1767 63.135 54.2817 63.17C54.3117 63.18 54.3466 63.185 54.3766 63.195C54.3066 63.08 54.3916 62.905 54.5216 62.885L54.4516 62.87L52.0066 62.39C51.6867 62.325 51.3567 62.26 51.0817 62.095C50.7817 61.915 50.5517 61.605 50.5067 61.255C50.4617 60.905 50.6267 60.53 50.9367 60.365C51.1717 60.235 51.4517 60.24 51.7217 60.245C52.9766 60.285 54.2316 60.43 55.4666 60.675C55.4766 60.675 55.4916 60.68 55.5016 60.68C55.4216 60.525 55.5016 60.305 55.6616 60.235C55.6416 60.235 55.6216 60.23 55.6066 60.23C54.6166 60.14 53.6267 60.045 52.6367 59.955C53.2417 59.425 53.3316 58.53 53.3766 57.73C53.3766 57.725 55.7316 57.695 55.8316 57.695Z" fill="#E49500"/>
</g>
<defs>
<clipPath id="clip0_361_94">
<rect width="64" height="64" fill="white" transform="translate(0.166748)"/>
</clipPath>
</defs>
</svg>
