<svg width="19" height="27" viewBox="0 0 19 27" fill="none" xmlns="http://www.w3.org/2000/svg">
<ellipse cx="9.5" cy="13.5" rx="9.5" ry="13.5" fill="#8C8484" fill-opacity="0.33"/>
<path d="M10.3351 6H11.9888C12.109 6.715 12.4397 7.617 13.0202 8.512C13.5881 9.389 14.3414 10 15.3461 10V12C13.8821 12 12.7822 11.186 12.0055 10.171V17C12.0055 17.9889 11.7605 18.9556 11.3017 19.7778C10.8429 20.6001 10.1907 21.241 9.42765 21.6194C8.66462 21.9978 7.825 22.0969 7.01497 21.9039C6.20494 21.711 5.46088 21.2348 4.87688 20.5355C4.29288 19.8363 3.89517 18.9454 3.73405 17.9755C3.57292 17.0055 3.65562 16.0002 3.97168 15.0866C4.28773 14.173 4.82296 13.3921 5.50967 12.8427C6.19638 12.2932 7.00373 12 7.82963 12V14C7.33409 14 6.84968 14.1759 6.43766 14.5056C6.02563 14.8352 5.70449 15.3038 5.51486 15.8519C5.32522 16.4001 5.27561 17.0033 5.37228 17.5853C5.46896 18.1672 5.70758 18.7018 6.05798 19.1213C6.40838 19.5409 6.85482 19.8266 7.34084 19.9424C7.82686 20.0581 8.33063 19.9987 8.78845 19.7716C9.24626 19.5446 9.63757 19.1601 9.91288 18.6667C10.1882 18.1734 10.3351 17.5933 10.3351 17V6Z" fill="black"/>
</svg>
