<svg width="19" height="27" viewBox="0 0 19 27" fill="none" xmlns="http://www.w3.org/2000/svg">
<ellipse cx="9.5" cy="13.5" rx="9.5" ry="13" fill="#8C8484" fill-opacity="0.33"/>
<path d="M7.36883 19.5C10.9539 19.5 12.915 14.4973 12.915 10.1665C12.915 10.0265 12.915 9.88451 12.9115 9.74452C13.2933 9.27903 13.6228 8.70273 13.8846 8.04261C13.528 8.30745 13.15 8.48199 12.7631 8.56058C13.1707 8.15024 13.476 7.50461 13.6222 6.74368C13.2392 7.12578 12.8201 7.39402 12.383 7.53664C12.0893 7.00969 11.7005 6.6606 11.2769 6.54345C10.8534 6.42629 10.4188 6.54761 10.0403 6.88861C9.66187 7.22961 9.36075 7.77125 9.1836 8.42965C9.00645 9.08805 8.96316 9.82645 9.06042 10.5305C8.28543 10.465 7.52725 10.126 6.83508 9.53527C6.1429 8.94458 5.53217 8.11545 5.04252 7.10166C4.79394 7.82471 4.71808 8.67998 4.83034 9.4938C4.9426 10.3076 5.23457 11.019 5.64696 11.4834C5.33793 11.4657 5.0357 11.326 4.76464 11.0754V11.1204C4.76518 11.8779 4.92098 12.6118 5.20572 13.1981C5.49047 13.7844 5.88668 14.1872 6.32739 14.3383C6.16011 14.4159 5.98731 14.4546 5.8138 14.4533C5.69148 14.4539 5.5694 14.4348 5.44924 14.3963C5.5738 15.0483 5.81634 15.6184 6.14288 16.0267C6.46943 16.4349 6.86363 16.661 7.27027 16.6732C6.57947 17.5869 5.72616 18.0825 4.84777 18.0801C4.69299 18.0812 4.53832 18.0661 4.38464 18.0351C5.27617 18.9923 6.31154 19.5005 7.36883 19.5Z" fill="black"/>
</svg>
