<svg width="12" height="13" viewBox="0 0 12 13" fill="none" xmlns="http://www.w3.org/2000/svg">
<path d="M6.0041 0.500001C4.60506 0.499114 3.24968 0.987108 2.17232 1.87961C1.09497 2.7721 0.363366 4.013 0.104013 5.38773C-0.15534 6.76246 0.0738621 8.1846 0.751989 9.40825C1.43012 10.6319 2.51454 11.5801 3.81775 12.089C3.76524 11.6143 3.71724 10.8845 3.838 10.3663C3.9475 9.8975 4.54153 7.3835 4.54153 7.3835C4.54153 7.3835 4.36227 7.02425 4.36227 6.49325C4.36227 5.6585 4.84604 5.036 5.44832 5.036C5.95985 5.036 6.20736 5.42 6.20736 5.88125C6.20736 6.39575 5.87959 7.16525 5.71008 7.8785C5.56908 8.4755 6.0101 8.963 6.59888 8.963C7.66543 8.963 8.48522 7.838 8.48522 6.215C8.48522 4.77875 7.45242 3.7745 5.9786 3.7745C4.27152 3.7745 3.26947 5.05475 3.26947 6.37775C3.26947 6.89375 3.46823 7.4465 3.71574 7.74725C3.73706 7.76992 3.75213 7.79773 3.75949 7.82796C3.76685 7.8582 3.76625 7.88982 3.75774 7.91975C3.71199 8.10875 3.61074 8.51675 3.59124 8.6C3.56498 8.7095 3.50423 8.73275 3.39023 8.68025C2.64019 8.3315 2.17217 7.23575 2.17217 6.35525C2.17217 4.463 3.54773 2.72525 6.13686 2.72525C8.2182 2.72525 9.83603 4.208 9.83603 6.19025C9.83603 8.258 8.53172 9.92225 6.72263 9.92225C6.11435 9.92225 5.54283 9.6065 5.34707 9.233L4.97355 10.6595C4.83779 11.1808 4.47178 11.834 4.22727 12.2323C5.05228 12.4873 5.92264 12.5613 6.77888 12.4492C7.63513 12.3371 8.45708 12.0414 9.18858 11.5825C9.92009 11.1236 10.5439 10.5122 11.0174 9.7901C11.491 9.06799 11.8031 8.25218 11.9324 7.39841C12.0617 6.54463 12.0051 5.673 11.7667 4.84307C11.5282 4.01313 11.1134 3.24445 10.5506 2.58953C9.98774 1.93461 9.29018 1.40888 8.50554 1.04826C7.7209 0.687644 6.86765 0.500632 6.0041 0.500001Z" fill="black"/>
</svg>
