<svg width="11" height="16" viewBox="0 0 11 16" fill="none" xmlns="http://www.w3.org/2000/svg">
<path d="M9.74946 8.94037L2.89696 14.9354C2.08946 15.6429 0.824463 15.0679 0.824463 13.9941V2.00412C0.824257 1.76382 0.893323 1.52855 1.02339 1.32648C1.15346 1.12442 1.33901 0.964132 1.55783 0.864813C1.77665 0.765493 2.01946 0.731352 2.25718 0.76648C2.49491 0.801607 2.71747 0.904513 2.89821 1.06287L9.74821 7.05787C9.88247 7.1752 9.99008 7.31989 10.0638 7.48223C10.1375 7.64458 10.1757 7.82082 10.1757 7.99912C10.1757 8.17742 10.1375 8.35366 10.0638 8.51601C9.99008 8.67835 9.88247 8.82304 9.74821 8.94037H9.74946Z" fill="black"/>
</svg>
