<svg width="14" height="34" viewBox="0 0 14 34" fill="none" xmlns="http://www.w3.org/2000/svg">
<path d="M13.7908 4.99518L13.9023 0.849854L0.310296 0.889839L0.19873 4.79525L3.5642 7.41441H5.56303C5.48866 11.2865 5.24693 23.4359 5.24693 23.4359C5.24693 23.4359 4.48459 24.2157 3.61998 24.8021C2.49506 25.5686 0.644984 26.5749 0.812328 29.0674C0.970374 31.36 4.12201 33.0928 7.21787 33.0928C10.5276 33.0928 12.7774 31.36 12.889 29.7139C13.0005 28.0611 12.0987 27.9945 11.5967 27.9411C10.8065 27.8612 10.1929 28.261 10.0255 28.9875C9.85819 29.7139 8.84482 30.6403 7.10631 30.3537C5.36779 30.0671 4.24287 28.7009 5.6467 27.3746C6.65076 26.4216 8.56592 26.1284 8.73326 25.322C8.88201 24.6289 8.77045 11.0866 8.74256 7.40774H10.8158L13.7908 4.99518Z" fill="#858587"/>
</svg>
