<svg width="27" height="19" viewBox="0 0 27 19" fill="none" xmlns="http://www.w3.org/2000/svg">
<path d="M1.77763 6.85895C0.708491 7.21217 0.857238 7.81864 0.866535 8.43844C0.903722 11.1442 1.08037 17.2889 1.08037 17.2889C1.08037 17.2889 1.33138 18.1753 2.95833 18.1753C4.90138 18.1753 5.05013 17.2489 5.05013 17.2489V8.0519L12.3854 3.6933L22.1192 8.81832C22.1192 8.81832 22.3888 16.7824 22.3888 17.2423C22.3888 17.7021 23.0303 18.3219 24.5364 18.2819C26.2563 18.2353 26.4701 17.2423 26.4701 17.2423C26.4701 17.2423 26.405 8.71169 26.3493 8.00525C26.2563 6.95225 24.0529 6.97225 24.0529 6.97225C24.0529 6.97225 13.315 0.847552 12.3482 0.814229C11.279 0.780907 2.52138 6.61236 1.77763 6.85895Z" fill="#FF510F"/>
</svg>
