<svg width="93" height="37" viewBox="0 0 93 37" fill="none" xmlns="http://www.w3.org/2000/svg">
<path d="M0.754883 11.4203L32.4107 0.60376C32.4107 0.60376 43.0371 2.29655 63.7412 5.94204C87.848 10.1873 92.7103 11.7335 92.7103 11.7335L85.4494 13.1664L79.5459 11.6069L32.5037 3.53615L7.2534 11.9334L1.71246 12.5199L0.754883 11.4203ZM3.25574 23.4098V35.8524C3.25574 36.259 3.64621 36.6188 4.38066 36.6588C5.11512 36.6988 14.7746 36.5788 15.3324 36.6188C15.8902 36.6588 16.5131 36.2989 16.5131 35.5725V23.4564C16.5131 23.4564 13.1476 21.6437 12.7479 21.6836C12.3481 21.7236 3.25574 23.4098 3.25574 23.4098Z" fill="#858585"/>
</svg>
