<svg width="48" height="64" viewBox="0 0 48 64" fill="none" xmlns="http://www.w3.org/2000/svg">
<path d="M27.7471 42.8878L32.7845 35.7295L47.025 55.966L41.9876 63.1243L27.7471 42.8878ZM36.575 25.4323C41.1587 25.4323 44.8875 20.1336 44.8875 13.6198C44.8875 11.6623 44.5075 9.83984 43.9137 8.21984L37.5012 17.3323L33.9625 12.3036L40.375 3.19109C39.235 2.34734 37.9525 1.80734 36.575 1.80734C31.9912 1.80734 28.2625 7.10609 28.2625 13.6198C28.2625 15.0036 28.4525 16.3198 28.7612 17.5348L24.3675 23.7786L20.14 17.7711L21.8262 15.3748L18.4775 10.6161L23.5125 3.46109C22.1766 1.56501 20.3656 0.5 18.4775 0.5C16.5894 0.5 14.7784 1.56501 13.4425 3.46109L5.035 15.4086L8.38375 20.1673H1.68625L0 22.5636L8.4075 34.5111L10.0937 32.1148V22.5636L13.4425 27.3223L15.1287 24.9261L19.3562 30.9336L1.7575 55.9423L6.7925 63.0973L33.82 24.7236C34.675 25.1623 35.6012 25.4323 36.575 25.4323Z" fill="#0FA958"/>
</svg>
