<svg width="12" height="13" viewBox="0 0 12 13" fill="none" xmlns="http://www.w3.org/2000/svg">
<path d="M6.85714 0.5H8.55429C8.67771 1.03625 9.01714 1.71275 9.61286 2.384C10.1957 3.04175 10.9689 3.5 12 3.5V5C10.4974 5 9.36857 4.3895 8.57143 3.62825V8.75C8.57143 9.49168 8.32008 10.2167 7.84916 10.8334C7.37824 11.4501 6.7089 11.9307 5.92579 12.2145C5.14268 12.4984 4.28096 12.5726 3.44961 12.4279C2.61827 12.2832 1.85463 11.9261 1.25526 11.4016C0.655891 10.8772 0.247716 10.209 0.0823507 9.48159C-0.0830145 8.75416 0.00185693 8.00016 0.326232 7.31494C0.650608 6.62971 1.19992 6.04404 1.9047 5.63199C2.60948 5.21993 3.43808 5 4.28572 5V6.5C3.77714 6.5 3.27998 6.63196 2.85711 6.87919C2.43424 7.12643 2.10465 7.47783 1.91003 7.88896C1.7154 8.3001 1.66448 8.75249 1.7637 9.18895C1.86292 9.62541 2.10782 10.0263 2.46744 10.341C2.82706 10.6557 3.28525 10.8699 3.78405 10.9568C4.28286 11.0436 4.79989 10.999 5.26976 10.8287C5.73963 10.6584 6.14123 10.37 6.42378 10C6.70633 9.63002 6.85714 9.19501 6.85714 8.75V0.5Z" fill="black"/>
</svg>
