<svg width="27" height="14" viewBox="0 0 27 14" fill="none" xmlns="http://www.w3.org/2000/svg">
<path fill-rule="evenodd" clip-rule="evenodd" d="M8.14438 0.403844C8.37786 2.5188 7.90644 4.89392 8.43679 6.53408C8.93434 8.0731 10.0228 9.30195 11.4427 9.94869C12.6045 10.4774 14.0583 10.4673 15.1935 10.11C17.3521 9.4295 18.713 7.4803 18.7842 4.81356C18.8231 3.3695 18.708 1.92095 18.8375 0.457786C20.1234 0.380245 21.516 0.365636 22.8807 0.430815C24.255 0.497118 25.6353 0.320685 26.8973 0.511728C26.9557 1.50684 26.7111 2.43115 26.4714 3.28073C25.7677 5.78002 24.4329 7.84609 22.774 9.43793C20.6804 11.4467 17.5411 13.265 13.4373 13.202C9.33683 13.1391 6.43436 11.3703 4.23347 9.30364C2.5607 7.73315 1.2515 5.69742 0.536031 3.14643C0.299208 2.30191 0.0306982 1.38434 0.0573825 0.404406C0.552709 0.258314 1.11363 0.324054 1.65343 0.324054C3.8471 0.323493 6.05745 0.252695 8.14438 0.403844Z" fill="#FBC11B"/>
</svg>
