<svg width="12" height="13" viewBox="0 0 12 13" fill="none" xmlns="http://www.w3.org/2000/svg">
<path d="M3.7695 12.5C8.298 12.5 10.7752 7.88209 10.7752 3.88446C10.7752 3.75524 10.7753 3.62417 10.7708 3.49494C11.253 3.06526 11.6693 2.53329 12 1.92395C11.5495 2.16841 11.0721 2.32953 10.5833 2.40208C11.0982 2.0233 11.4838 1.42733 11.6685 0.724936C11.1847 1.07765 10.6553 1.32525 10.1032 1.4569C9.73214 0.970483 9.24105 0.648248 8.70606 0.540106C8.17107 0.431964 7.62204 0.54395 7.144 0.858717C6.66597 1.17348 6.2856 1.67347 6.06184 2.28122C5.83807 2.88897 5.78338 3.57057 5.90625 4.22044C4.92731 4.16003 3.96961 3.84705 3.09528 3.30179C2.22095 2.75654 1.44951 1.99119 0.831 1.05538C0.517005 1.72281 0.42118 2.51229 0.562985 3.26351C0.704789 4.01473 1.07359 4.67137 1.5945 5.10009C1.20415 5.08377 0.822391 4.95476 0.48 4.72349V4.76503C0.480673 5.4642 0.67748 6.14165 1.03716 6.68286C1.39683 7.22406 1.89731 7.59584 2.454 7.73533C2.2427 7.80697 2.02442 7.84268 1.80525 7.84148C1.65074 7.84206 1.49654 7.82444 1.34475 7.78887C1.50209 8.39073 1.80845 8.91696 2.22094 9.29384C2.63342 9.67072 3.13135 9.87939 3.645 9.8906C2.77242 10.7341 1.69455 11.1915 0.585 11.1893C0.389491 11.1903 0.194117 11.1764 0 11.1478C1.12614 12.0313 2.43397 12.5005 3.7695 12.5Z" fill="black"/>
</svg>
