<svg width="43" height="45" viewBox="0 0 43 45" fill="none" xmlns="http://www.w3.org/2000/svg">
<path fill-rule="evenodd" clip-rule="evenodd" d="M5.82332 7.4068C8.9993 4.16357 12.6795 1.54178 18.1392 0.712432C20.3168 0.381478 22.9324 0.451153 25.1083 0.820315C29.0581 1.49009 32.3341 3.25611 34.8702 5.31039C36.6392 6.74265 38.109 8.4418 39.3654 10.3382C39.6873 10.8242 40.0181 11.2861 40.296 11.7901C40.5807 12.3054 40.7858 12.8639 41.041 13.4303C41.5346 14.5265 41.9355 15.7228 42.2646 16.9792C42.9495 19.5965 43.2024 22.6245 42.8233 25.5559C42.5631 27.5669 41.9994 29.5313 41.2806 31.1748C41.026 31.758 40.8536 32.3475 40.589 32.8689C39.5505 34.9131 38.1007 36.728 36.5191 38.3265C34.9286 39.9341 33.0707 41.3422 31.0133 42.3323C28.8335 43.3813 26.4925 44.2135 23.6184 44.4292C20.5597 44.659 17.7134 44.3287 15.2923 43.4881C14.0877 43.07 12.9936 42.6183 11.9407 42.0901C8.86088 40.546 6.24304 38.1597 4.28008 35.4761C2.96088 33.673 1.81624 31.6192 1.06129 29.1582C0.313579 26.7201 -0.202872 23.8219 0.0773124 20.7427C0.349158 17.7563 0.962896 15.2632 1.99246 13.1072C3.00924 10.9787 4.29009 9.16664 5.82332 7.4068ZM21.1184 4.69118C16.9256 4.69174 13.7146 6.25155 11.2764 8.05185C10.4175 8.68623 9.60248 9.35712 8.90924 10.0954C6.10073 13.0858 3.92985 16.9899 3.96154 22.8661C3.96877 24.2231 4.24006 25.5188 4.54693 26.7106C4.85379 27.9057 5.21347 29.0093 5.69046 29.9909C7.63841 33.9972 10.5492 36.9257 14.6013 38.7558C16.5988 39.6577 19.0576 40.3847 21.8367 40.342C24.5051 40.301 26.9422 39.6492 28.9386 38.6485C32.8678 36.6785 35.8103 33.7904 37.557 29.6144C38.4198 27.5523 39.1253 25.0816 38.9935 22.2211C38.9285 20.8135 38.8012 19.5206 38.4882 18.2957C37.8839 15.9307 36.941 13.9208 35.7219 12.22C35.1071 11.3625 34.4716 10.5197 33.7006 9.79989C32.2057 8.40528 30.5479 7.14496 28.4605 6.22402C26.5481 5.38062 23.8697 4.56195 21.1723 4.69174C21.154 4.69231 21.1362 4.69118 21.1184 4.69118Z" fill="#FBC11B"/>
</svg>
