<svg width="27" height="14" viewBox="0 0 27 14" fill="none" xmlns="http://www.w3.org/2000/svg">
<path fill-rule="evenodd" clip-rule="evenodd" d="M26.8707 13.5755C24.2906 13.684 21.4137 13.6199 18.837 13.5486C18.6108 11.0807 19.1256 8.78765 18.4118 7.04242C17.7196 5.34944 16.5505 4.15711 14.7404 3.70872C13.5975 3.42553 12.2243 3.56432 11.3093 4.00428C9.88058 4.69147 8.45853 6.24903 8.22393 8.09091C8.11497 8.94779 8.19336 9.89233 8.22393 10.7796C8.25451 11.6735 8.2117 12.5765 8.14443 13.4682C6.21372 13.5396 4.09343 13.4952 2.05264 13.4946C1.36942 13.4946 0.708981 13.5452 0.0846813 13.4407C0.00351676 12.4714 0.282589 11.5668 0.510517 10.7251C1.62959 6.59291 4.30913 3.5896 7.90539 1.96012C8.67478 1.61174 9.44196 1.32743 10.2992 1.12683C12.445 0.624501 15.3397 0.661024 17.3216 1.34204C21.9357 2.92713 25.124 6.07934 26.4987 10.9403C26.73 11.7606 26.9296 12.6495 26.8707 13.5755Z" fill="#FBC11B"/>
</svg>
