<svg width="79" height="70" viewBox="0 0 79 70" fill="none" xmlns="http://www.w3.org/2000/svg">
<path d="M77.7845 20.5621C77.4383 20.2058 67.5782 10.7808 67.1037 10.7808H31.433C31.433 10.7808 25.7208 2.43082 24.99 1.39957C24.1694 0.237068 23.4321 0.174568 22.6884 1.36832C22.3871 1.85582 16.8929 10.7183 16.8929 10.7183C16.8929 10.7183 2.40406 10.8996 1.57063 10.8371C0.737207 10.7808 0.5 11.1871 0.5 11.5308C0.5 11.8808 0.5 22.9308 0.679508 23.0433C0.859015 23.1558 15.3991 23.0996 15.3991 23.0996L15.2773 65.2246C15.2773 65.2246 13.9823 65.2496 13.0912 65.2496C12.2001 65.2496 11.7064 65.2621 11.7128 65.9246C11.7128 66.2746 11.7 67.7746 11.7128 68.2996C11.7385 69.2996 11.6295 69.8121 12.309 69.8058C12.9053 69.7996 33.1447 69.8058 34.2731 69.8058C35.4014 69.8058 35.4014 69.1121 35.4014 68.7621V65.9871C35.4014 65.4121 34.8693 65.1746 34.4526 65.1746H31.901V33.1746C31.901 33.1746 34.1 33.2933 36.472 32.9433C38.8441 32.5933 39.6134 30.0308 40.0302 28.1808C40.4469 26.3308 40.3315 22.9558 40.3315 22.9558C40.3315 22.9558 77.0664 23.0496 77.8421 22.7621C78.6115 22.4683 78.8423 21.6683 77.7845 20.5621ZM4.01322 13.7183H8.30858L4.01322 18.3933V13.7183ZM6.35964 19.0496L9.66771 15.3933L13.6297 19.0496H6.35964ZM15.5915 18.0183L11.1358 13.7183H15.5915V18.0183ZM28.1826 52.8121L23.6693 57.2621L19.1303 52.8121H28.1826ZM20.2523 50.7308L23.8039 47.1558L27.4518 50.6871L20.2523 50.7308ZM23.5347 30.3058L18.4187 25.6121H28.2596L23.5347 30.3058ZM29.3302 27.8808V35.6308L25.2464 31.8808L29.3302 27.8808ZM27.7339 37.6621H19.3547L23.5026 33.5933L27.7339 37.6621ZM29.3302 41.3058V49.1683L25.3746 45.4121L29.3302 41.3058ZM27.5159 39.7058L23.6116 43.8808L19.4509 39.7808L27.5159 39.7058ZM29.6572 20.3621H20.6113L29.6636 15.2496V20.3621H29.6572ZM23.7462 4.65582C23.7462 4.65582 27.8236 10.4246 27.7211 10.6183C27.6698 10.7183 25.5926 10.6433 23.618 10.6308C21.7588 10.6246 19.9894 10.6871 19.9702 10.5683C19.9189 10.3308 23.7462 4.65582 23.7462 4.65582ZM18.3738 13.6746H27.5672L18.3354 19.1058L18.3738 13.6746ZM17.9828 28.2808L21.8358 31.9933L17.9828 35.8183V28.2808ZM17.9828 41.5496L21.9448 45.4433L18.0084 49.4933L17.9828 41.5496ZM17.9828 55.0683L21.964 58.9496L17.9828 62.8746V55.0683ZM19.1303 65.2683L23.695 60.6371L28.3557 65.1808C26.2722 65.1746 21.3678 65.2371 19.1303 65.2683ZM29.3302 62.8183L25.3682 58.9308L29.3302 54.9121V62.8183ZM32.0485 20.3621L32.0869 14.8058L37.5106 20.3746C34.1962 20.3621 32.0485 20.3621 32.0485 20.3621ZM40.3892 19.9121L33.9654 13.5183L46.8963 13.4808L40.3892 19.9121ZM43.3062 20.3871L49.5697 14.4121L56.1089 20.4183C51.8007 20.4058 47.2617 20.3933 43.3062 20.3871ZM51.7879 13.4683L65.6805 13.4308L58.8208 19.9746L51.7879 13.4683ZM72.9057 20.4558C72.8416 20.4558 68.1808 20.4433 62.0327 20.4308C63.5328 18.9558 66.5973 15.9371 67.8602 14.6933C69.5592 16.3746 72.4056 19.1996 72.8544 19.6371C73.5019 20.2621 73.1044 20.4558 72.9057 20.4558Z" fill="#F3911C"/>
</svg>
